<svg class="shopnav__icon icon-reorder" viewBox="0 0 30 32" aria-hidden="true" version="1.1" xmlns="http://www.w3.org/2000/svg" xmlns:xlink="http://www.w3.org/1999/xlink">
<!-- <title>reorder</title> -->
<path d="M21.466 22.931c0 0.701-0.579 1.28-1.28 1.28-0.698 0-1.277-0.579-1.277-1.28 0-0.698 0.579-1.277 1.277-1.277 0.701-0.003 1.28 0.579 1.28 1.277zM12.512 22.931c0 0.701-0.579 1.28-1.277 1.28-0.701 0-1.28-0.579-1.28-1.28 0-0.698 0.579-1.277 1.28-1.277 0.698-0.003 1.277 0.579 1.277 1.277zM22.742 12.061v5.117c0 0.32-0.25 0.598-0.57 0.637l-10.432 1.222c0.048 0.227 0.128 0.458 0.128 0.698 0 0.23-0.141 0.442-0.24 0.64h9.194c0.349 0 0.64 0.288 0.64 0.64 0 0.349-0.291 0.637-0.64 0.637h-10.227c-0.349 0-0.64-0.288-0.64-0.637 0-0.31 0.451-1.062 0.608-1.37l-1.766-8.224h-2.038c-0.349 0-0.637-0.288-0.637-0.64 0-0.349 0.288-0.637 0.637-0.637h2.56c0.669 0 0.688 0.797 0.79 1.277h11.997c0.349 0 0.637 0.288 0.637 0.64z"></path>
<path d="M21.869 9.251l3.373-3.373c-2.442-2.23-5.683-3.59-9.242-3.59-7.562 0-13.712 6.154-13.712 13.712s6.15 13.712 13.712 13.712c3.562 0 6.803-1.36 9.242-3.587l1.619 1.616c-2.854 2.643-6.672 4.259-10.861 4.259-8.822 0-16-7.178-16-16s7.178-16 16-16c4.189 0 8.006 1.619 10.861 4.259l3.158-3.158v8.147h-8.15z"></path>
</svg>
