<?xml version="1.0" encoding="UTF-8"?><svg id="Ebene_1" xmlns="http://www.w3.org/2000/svg" width="200" height="40" viewBox="29 0 100 26"><defs><style>.cls-1{fill:#0064ad;}</style></defs><path class="cls-1" d="M33.421,6.98c-.583,.28-1.34,.42-1.9,.42-1.282,0-1.609-.513-1.632-1.166h4.301c.082-.361,.152-.897,.152-1.142,0-1.842-1.201-2.646-2.797-2.646-2.704,0-3.637,2.168-3.637,3.578,0,1.527,1.096,2.774,3.124,2.774,.606,0,1.387-.117,2.121-.338l.268-1.48h0Zm-3.403-1.935c.151-.583,.641-1.201,1.55-1.201,.769,0,1.026,.548,1.026,1.201h-2.576Z"/><path class="cls-1" d="M46.297,7.05c.536,.233,1.119,.35,1.702,.35,.338,0,1.177-.035,1.177-.536,0-.863-2.506-.42-2.506-2.424,0-1.422,1.655-1.993,3.065-1.993,.525,0,1.259,.117,2.016,.361l-.443,1.375c-.536-.221-1.049-.338-1.678-.338-.466,0-.979,.105-.979,.525,0,.676,2.623,.629,2.623,2.156,0,1.504-1.27,2.25-2.844,2.273-.921,.012-1.9-.128-2.552-.315l.42-1.434h0Z"/><path class="cls-1" d="M52.665,12.289l-.233,1.247h.023c.338-.711,1.014-1.387,1.877-1.387,.28,0,.606,.035,.886,.152l-.478,1.853c-.268-.21-.571-.256-.968-.256-.886,0-1.41,.769-1.562,1.667l-.594,2.797h-2.098l1.279-6.073h1.868Z"/><path class="cls-1" d="M60.457,16.683c-.583,.28-1.34,.419-1.9,.419-1.282,0-1.609-.513-1.632-1.165h4.301c.082-.361,.152-.897,.152-1.142,0-1.841-1.201-2.646-2.797-2.646-2.704,0-3.636,2.168-3.636,3.578,0,1.527,1.096,2.774,3.124,2.774,.606,0,1.387-.116,2.121-.338l.268-1.48h0Zm-3.403-1.935c.151-.583,.641-1.201,1.55-1.201,.769,0,1.026,.548,1.026,1.201h-2.576Z"/><path class="cls-1" d="M66.166,18.362h1.923c.023-.245,.058-.548,.128-.909l1.632-7.833h-2.063l-.734,3.648h-.024c-.315-.653-1.049-1.119-2.11-1.119-2.075,0-3.077,1.853-3.077,3.846,0,1.364,.956,2.506,2.261,2.506,1.166,0,1.667-.431,2.203-1.107h.023l-.163,.967h0Zm-1.154-1.469c-.664,0-1.002-.501-1.002-1.247,0-.944,.594-1.888,1.585-1.888,.699,0,1.002,.63,1.002,1.236,0,.804-.594,1.9-1.585,1.9h0Z"/><path class="cls-1" d="M70.764,9.76h2.121l-.327,1.539h-2.121l.326-1.539h0Zm-.536,2.529h2.121l-1.259,6.073h-2.121l1.259-6.073h0Z"/><path class="cls-1" d="M72.91,12.289h1.201l.291-1.305,2.214-.595-.419,1.9h1.445l-.257,1.469h-1.527l-.361,1.69c-.093,.454-.175,.758-.175,1.049,0,.408,.268,.676,.688,.676,.222,0,.455-.093,.676-.175l-.233,1.387c-.443,.07-.886,.116-1.306,.116-1.072,0-1.923-.524-1.923-1.795,0-.303,.047-.606,.186-1.247l.361-1.702h-1.119l.256-1.469h0Z"/><path class="cls-1" d="M56.86,2.586l-2.063,3.835h-.023l-.548-3.835h-2.133l1.34,6.049-.226,.37c-.31,.573-.63,1.002-1.224,1.002-.269,0-.49-.043-.688-.097l-.328,1.559c.331,.082,.735,.146,1.261,.146,1.34,0,2.029-.711,2.646-1.783l.225-.37,3.986-6.877h-2.226Z"/><path class="cls-1" d="M49.223,16.497c-.549,.254-1.213,.397-1.939,.397-1.306,0-2.226-.676-2.226-2.121,0-1.538,1.053-3.709,3.233-3.709,.671,0,1.359,.06,2.01,.276l.329-1.563c-.487-.16-1.324-.322-2.677-.322-3.054,0-5.133,2.555-5.133,5.259,0,2.238,1.504,3.788,4.126,3.788,.624,0,1.373-.101,1.906-.239l.372-1.766h0Z"/><path class="cls-1" d="M41.625,5.219c0-.735-.454-1.251-1.158-1.251-1.032,0-1.752,1.064-1.752,2.002,0,.735,.438,1.283,1.173,1.283,1.001,0,1.736-1.048,1.736-2.033h0Z"/><path class="cls-1" d="M45.669,6.936c-.573,2.417-2.744,4.215-5.336,4.215-3.029,0-5.485-2.456-5.485-5.485S37.304,.181,40.333,.181c2.127,0,3.969,1.211,4.879,2.98,.17,.371,.286,.796,.286,1.323,0,1.94-1.824,2.769-2.606,2.769-.172,0-.235-.094-.235-.235s.063-.36,.109-.532l.86-3.801h-1.314l-.188,.751c-.438-.657-1.064-1.001-1.815-1.001-1.783,0-3.222,1.705-3.222,3.77,0,1.517,1.126,2.581,2.425,2.581,.641,0,1.189-.375,1.58-.813h.031c.016,.547,.407,.813,.845,.813,.698,0,2.563-.522,3.7-1.85h0Z"/><path class="cls-1" d="M50.832,21.404c-.066,.11-.163,.194-.29,.254-.127,.059-.276,.089-.447,.089h-.409l.247-1.276h.314c.223,0,.393,.047,.51,.141,.117,.094,.175,.23,.175,.408,0,.147-.033,.275-.099,.384h0Zm.816,.199c.101-.176,.152-.384,.152-.625,0-.247-.057-.457-.17-.627-.113-.171-.281-.301-.502-.392-.221-.091-.489-.136-.803-.136h-1.114l-.774,3.974h.852l.271-1.401h.513c.028,0,.057-.002,.085-.003l.568,1.404h.951l-.749-1.577c.113-.049,.219-.107,.318-.177,.165-.117,.299-.263,.4-.439h0Z"/><path class="cls-1" d="M54.037,22.753c-.063,.124-.148,.222-.256,.295-.108,.073-.228,.11-.361,.11-.108,0-.204-.024-.288-.071-.084-.047-.147-.115-.191-.204-.044-.089-.065-.192-.065-.311,0-.15,.031-.287,.094-.41,.063-.124,.149-.222,.259-.295,.11-.073,.229-.11,.358-.11,.112,0,.207,.023,.288,.071,.08,.047,.143,.115,.188,.204,.045,.089,.068,.193,.068,.311,0,.15-.031,.287-.094,.41h0Zm.251-1.196c-.03-.078-.066-.15-.115-.213-.08-.101-.179-.178-.298-.23-.119-.052-.255-.079-.408-.079-.188,0-.368,.043-.538,.128-.171,.085-.321,.203-.45,.353-.129,.15-.23,.324-.303,.52-.073,.197-.11,.407-.11,.63,0,.24,.043,.452,.128,.635,.085,.183,.206,.325,.361,.426,.155,.101,.335,.152,.541,.152,.132,0,.258-.024,.376-.071s.225-.114,.319-.201c.057-.052,.103-.114,.143-.179l-.049,.367h.748l.523-2.677h-.763l-.104,.438h0Z"/><path class="cls-1" d="M57.106,20.366l-.868,.23-.099,.523h-.507l-.136,.669h.513l-.183,.941c-.014,.073-.026,.135-.037,.185-.01,.051-.018,.093-.024,.128-.005,.035-.009,.064-.01,.089-.002,.024-.003,.049-.003,.073,0,.216,.07,.383,.209,.499,.139,.117,.335,.175,.586,.175,.146,0,.312-.019,.497-.057l.105-.617c-.087,.031-.171,.047-.251,.047-.091,0-.16-.025-.209-.076-.049-.051-.073-.123-.073-.217,0-.049,.007-.105,.021-.17,.014-.064,.029-.144,.047-.238l.147-.763h.585l.131-.669h-.585l.146-.753h0Z"/><path class="cls-1" d="M59.576,22.123c-.002,.021-.004,.04-.008,.058h-1.114c.049-.167,.13-.304,.243-.411,.113-.106,.255-.159,.426-.159,.143,0,.254,.039,.335,.118,.08,.078,.12,.191,.12,.337,0,.018-.001,.037-.003,.058h0Zm-.416-1.088c-.22,0-.423,.04-.609,.12-.187,.08-.348,.192-.484,.335-.136,.143-.242,.312-.319,.507-.077,.195-.115,.408-.115,.638,0,.192,.033,.365,.099,.52,.066,.155,.16,.286,.282,.392,.122,.106,.271,.188,.447,.246,.176,.057,.375,.086,.599,.086,.059,0,.125-.004,.196-.013,.071-.009,.146-.019,.225-.031,.078-.012,.156-.028,.232-.047,.077-.019,.147-.039,.209-.06l.11-.664c-.122,.063-.255,.11-.4,.141-.145,.031-.276,.047-.395,.047-.289,0-.497-.046-.622-.138-.125-.092-.195-.245-.209-.457h1.846c.024-.084,.043-.173,.055-.267,.012-.094,.018-.183,.018-.267,0-.338-.103-.604-.308-.797-.206-.194-.492-.29-.857-.29h0Z"/><path class="cls-1" d="M62.721,21.035c-.132,0-.258,.025-.377,.076-.118,.051-.221,.12-.308,.207-.052,.052-.097,.114-.137,.18l.059-.379h-.779l-.518,2.677h.81l.277-1.427c.024-.129,.064-.239,.118-.332,.054-.092,.119-.162,.196-.209,.077-.047,.162-.071,.256-.071,.122,0,.212,.03,.272,.091,.059,.061,.089,.154,.089,.28,0,.028,0,.057-.002,.086-.002,.03-.006,.064-.013,.102l-.288,1.48h.81l.303-1.563c.011-.059,.019-.118,.024-.178,.005-.059,.008-.115,.008-.167,0-.265-.072-.473-.215-.625-.143-.152-.338-.227-.585-.227h0Z"/><polygon class="cls-1" points="67.077 21.119 66.078 21.119 65.017 22.12 65.513 19.561 64.703 19.561 63.882 23.796 64.692 23.796 64.927 22.583 65.754 23.796 66.721 23.796 65.684 22.379 67.077 21.119 67.077 21.119"/><path class="cls-1" d="M69.001,22.753c-.063,.124-.148,.222-.256,.295-.108,.073-.228,.11-.361,.11-.108,0-.204-.024-.288-.071-.084-.047-.147-.115-.191-.204-.044-.089-.065-.192-.065-.311,0-.15,.031-.287,.094-.41,.063-.124,.149-.222,.259-.295,.11-.073,.229-.11,.358-.11,.112,0,.207,.023,.288,.071,.08,.047,.143,.115,.188,.204,.045,.089,.068,.193,.068,.311,0,.15-.031,.287-.094,.41h0Zm.251-1.196c-.03-.077-.066-.15-.115-.213-.08-.101-.179-.178-.298-.23-.118-.052-.254-.079-.408-.079-.188,0-.368,.043-.539,.128-.171,.085-.321,.203-.45,.353-.129,.15-.23,.324-.303,.52-.073,.197-.11,.407-.11,.63,0,.24,.043,.452,.128,.635,.085,.183,.206,.325,.361,.426,.155,.101,.335,.152,.541,.152,.132,0,.258-.024,.377-.071,.118-.047,.225-.114,.319-.201,.057-.052,.103-.114,.143-.179l-.049,.367h.748l.523-2.677h-.763l-.104,.438h0Z"/><path class="cls-1" d="M72.226,22.541c-.038,.195-.105,.345-.201,.45-.096,.105-.212,.157-.348,.157-.237,0-.355-.124-.355-.371,0-.056,.007-.119,.021-.188l.288-1.469h-.826l-.303,1.553c-.024,.119-.036,.235-.036,.351,0,.268,.071,.477,.212,.627,.141,.15,.337,.225,.588,.225,.199,0,.376-.053,.533-.159,.137-.093,.243-.219,.321-.374l-.07,.45h.763l.518-2.672h-.826l-.277,1.422h0Z"/><path class="cls-1" d="M75.324,20.403c.096-.101,.227-.152,.395-.152,.139,0,.27,.033,.392,.099l.115-.68c-.066-.042-.153-.075-.261-.099-.108-.024-.225-.037-.35-.037-.704,0-1.136,.415-1.297,1.244l-.065,.34h-.447l-.126,.669h.444l-.386,2.008h.826l.382-2.008h.669l.125-.669h-.667l.045-.235c.042-.22,.111-.38,.207-.481h0Z"/></svg>