<svg xmlns="http://www.w3.org/2000/svg" width="49" height="32" fill="none"><path fill="#D9D9D9" d="M0 4a4 4 0 0 1 4-4h7a4 4 0 0 1 4 4v7a4 4 0 0 1-4 4H4a4 4 0 0 1-4-4V4Z"/><path fill="url(#a)" d="M0 4a4 4 0 0 1 4-4h7a4 4 0 0 1 4 4v7a4 4 0 0 1-4 4H4a4 4 0 0 1-4-4V4Z"/><path fill="#D9D9D9" d="M0 21a4 4 0 0 1 4-4h7a4 4 0 0 1 4 4v7a4 4 0 0 1-4 4H4a4 4 0 0 1-4-4v-7Z"/><path fill="url(#b)" d="M0 21a4 4 0 0 1 4-4h7a4 4 0 0 1 4 4v7a4 4 0 0 1-4 4H4a4 4 0 0 1-4-4v-7Z"/><path fill="#D9D9D9" d="M17 4a4 4 0 0 1 4-4h7a4 4 0 0 1 4 4v7a4 4 0 0 1-4 4h-7a4 4 0 0 1-4-4V4Z"/><path fill="url(#c)" d="M17 4a4 4 0 0 1 4-4h7a4 4 0 0 1 4 4v7a4 4 0 0 1-4 4h-7a4 4 0 0 1-4-4V4Z"/><path fill="#D9D9D9" d="M17 21a4 4 0 0 1 4-4h7a4 4 0 0 1 4 4v7a4 4 0 0 1-4 4h-7a4 4 0 0 1-4-4v-7Z"/><path fill="url(#d)" d="M17 21a4 4 0 0 1 4-4h7a4 4 0 0 1 4 4v7a4 4 0 0 1-4 4h-7a4 4 0 0 1-4-4v-7Z"/><path fill="#D9D9D9" d="M34 4a4 4 0 0 1 4-4h7a4 4 0 0 1 4 4v7a4 4 0 0 1-4 4h-7a4 4 0 0 1-4-4V4Z"/><path fill="url(#e)" d="M34 4a4 4 0 0 1 4-4h7a4 4 0 0 1 4 4v7a4 4 0 0 1-4 4h-7a4 4 0 0 1-4-4V4Z"/><path fill="#D9D9D9" d="M34 21a4 4 0 0 1 4-4h7a4 4 0 0 1 4 4v7a4 4 0 0 1-4 4h-7a4 4 0 0 1-4-4v-7Z"/><path fill="url(#f)" d="M34 21a4 4 0 0 1 4-4h7a4 4 0 0 1 4 4v7a4 4 0 0 1-4 4h-7a4 4 0 0 1-4-4v-7Z"/><defs><linearGradient id="a" x1="0" x2="51.941" y1="32" y2="28.687" gradientUnits="userSpaceOnUse"><stop stop-color="#5362ED"/><stop offset="1" stop-color="#6086E8"/></linearGradient><linearGradient id="b" x1="0" x2="51.941" y1="32" y2="28.687" gradientUnits="userSpaceOnUse"><stop stop-color="#5362ED"/><stop offset="1" stop-color="#6086E8"/></linearGradient><linearGradient id="c" x1="0" x2="51.941" y1="32" y2="28.687" gradientUnits="userSpaceOnUse"><stop stop-color="#5362ED"/><stop offset="1" stop-color="#6086E8"/></linearGradient><linearGradient id="d" x1="0" x2="51.941" y1="32" y2="28.687" gradientUnits="userSpaceOnUse"><stop stop-color="#5362ED"/><stop offset="1" stop-color="#6086E8"/></linearGradient><linearGradient id="e" x1="0" x2="51.941" y1="32" y2="28.687" gradientUnits="userSpaceOnUse"><stop stop-color="#5362ED"/><stop offset="1" stop-color="#6086E8"/></linearGradient><linearGradient id="f" x1="0" x2="51.941" y1="32" y2="28.687" gradientUnits="userSpaceOnUse"><stop stop-color="#5362ED"/><stop offset="1" stop-color="#6086E8"/></linearGradient></defs></svg>