<svg><defs/><symbol id="icon-signOut" viewBox="0 0 100 100"><path d="M15 0C9.5 0 5 4.5 5 10v80c0 5.5 4.5 10 10 10h40c5.5 0 10-4.5 10-10V65H55v25H15V10h40v25h10V10c0-5.5-4.5-10-10-10H15zm60 30v15H30v10h45v15l20-20-20-20z"/></symbol><symbol id="icon-refresh" viewBox="0 0 100 100"><path d="M50 0C34.8 0 21.2 6.8 12 17.6L0 5.6v33.3h33.3L20 25.5c7.1-8.8 17.9-14.4 30-14.4 21.4 0 38.9 17.4 38.9 38.9H100c0-27.6-22.4-50-50-50zM0 50c0 27.6 22.4 50 50 50 15.2 0 28.8-6.8 38-17.6l12 12V61.1H66.7L80 74.5c-7.1 8.8-17.9 14.4-30 14.4-21.4 0-38.9-17.4-38.9-38.9H0z"/></symbol><symbol id="icon-alert" viewBox="0 0 100 100"><path d="M50 0c-4.1 0-7.5 3.4-7.5 7.5V11C29.6 14.4 20 26.1 20 40v24.2L16.4 75H10v10h31.3c-.9 1.5-1.3 3.2-1.3 5 0 5.5 4.5 10 10 10s10-4.5 10-10c0-1.8-.5-3.5-1.4-5H90V75h-6.4L80 64.2V40c0-13.9-9.6-25.6-22.5-29V7.5C57.5 3.4 54.1 0 50 0zm0 20c11.1 0 20 8.9 20 20v25.8l3.1 9.2H26.9l3.1-9.2V40c0-11.1 8.9-20 20-20z"/></symbol><symbol id="icon-signIn" viewBox="0 0 100 100"><path d="M40 0c-5.5 0-10 4.5-10 10v25h10V10h40v80H40V65H30v25c0 5.5 4.5 10 10 10h40c5.5 0 10-4.5 10-10V10c0-5.5-4.5-10-10-10H40zm10 30v15H10v10h40v15l20-20-20-20z"/></symbol><symbol id="icon-tasks" viewBox="0 0 100 100"><path d="M10 10C4.5 10 0 14.5 0 20v60c0 5.5 4.5 10 10 10h80c5.5 0 10-4.5 10-10V20c0-5.5-4.5-10-10-10H10zm0 10h80v60H10v-5h50V65H10V55h70V45H10V35h20V25H10v-5z"/></symbol><symbol id="icon-eye" viewBox="0 0 100 100"><path d="M50 13.6C13.6 13.6 0 50 0 50s13.6 36.4 50 36.4S100 50 100 50 86.4 13.6 50 13.6zm0 9.1c24 0 36.1 19.4 40 27.3-3.9 7.8-16.2 27.3-40 27.3-24 0-36.1-19.4-40-27.3 3.9-7.8 16.1-27.3 40-27.3zm0 9.1C40 31.8 31.8 40 31.8 50S40 68.2 50 68.2 68.2 60 68.2 50 60 31.8 50 31.8zm0 9.1c5 0 9.1 4.1 9.1 9.1S55 59.1 50 59.1 40.9 55 40.9 50s4.1-9.1 9.1-9.1z"/></symbol><symbol id="icon-eyeSlash" viewBox="0 0 100 100"><path d="M12.3 5.9l-6.4 6.4 12.6 12.6c-2.5 2-4.6 4.1-6.6 6.3C3.6 40.5 0 50 0 50s13.6 36.4 50 36.4c5.5 0 10.4-.8 14.9-2.2 3.3-1 6.3-2.3 9-3.9l13.8 13.8 6.4-6.4L12.3 5.9zM50 13.6c-5.5 0-10.4.8-14.9 2.2l7.5 7.5c2.3-.5 4.7-.7 7.3-.7 24 0 36.1 19.4 40 27.3-1.5 3-4.3 7.7-8.4 12.4l6.5 6.5c8.4-9.3 12-18.8 12-18.8S86.4 13.6 50 13.6zM24.9 31.4l9.4 9.4c-1.6 2.7-2.5 5.9-2.5 9.2v1.1c.5 9.1 7.9 16.5 17 17h1.1c3.4 0 6.5-.9 9.2-2.5l7.9 7.9c-3 1.4-6.2 2.5-9.8 3.1-2.2.4-4.6.7-7.2.7-24 0-36.1-19.4-40-27.3 1.5-3 4.2-7.7 8.4-12.4 1.8-2.1 4.1-4.2 6.5-6.2zm26.2.5l17 17c-.5-9.2-7.8-16.5-17-17zm-9.9 15.8l11.1 11.1c-.7.2-1.5.3-2.3.3-5 0-9.1-4.1-9.1-9.1 0-.8.1-1.6.3-2.3z"/></symbol><symbol id="icon-pencil" viewBox="0 0 100 100"><path d="M81.1,0c-1.3,0-2.7,0.5-3.7,1.5L66.9,12.1l-7.4,7.4L0,78.9V100h21.1l77.4-77.4c2.1-2.1,2.1-5.4,0-7.4L84.8,1.5
		C83.8,0.5,82.5,0,81.1,0z M81.1,12.7l6.2,6.2l-6.8,6.8l-6.2-6.2L81.1,12.7z M66.9,27l6.2,6.2L16.7,89.5h-6.2v-6.2L66.9,27z"/></symbol><symbol id="icon-user" viewBox="0 0 100 100"><path d="M50 0C22.4 0 0 22.4 0 50s22.4 50 50 50 50-22.4 50-50S77.6 0 50 0zm0 10c22.1 0 40 17.9 40 40 0 8-2.4 15.4-6.4 21.7l-3.8-3C72 62.7 57.7 60 50 60s-22 2.7-29.7 8.7l-3.8 3C12.4 65.4 10 58 10 50c0-22.1 17.9-40 40-40zm0 8.8c-9 0-16.2 7.3-16.2 16.2S41 51.2 50 51.2 66.2 44 66.2 35 59 18.8 50 18.8zm0 10c3.4 0 6.2 2.8 6.2 6.2s-2.8 6.2-6.2 6.2-6.2-2.8-6.2-6.2 2.8-6.2 6.2-6.2zM50 70c15.5 0 23.8 5.8 27.7 8.8C70.5 85.7 60.8 90 50 90s-20.5-4.3-27.7-11.2c3.9-3 12.2-8.8 27.7-8.8zm-29.7 6.7c.6.7 1.2 1.3 1.9 2-.7-.7-1.3-1.3-1.9-2zm59.3.2c-.5.6-1.1 1.2-1.7 1.8.6-.6 1.1-1.2 1.7-1.8z"/></symbol><symbol id="icon-caretRight" viewBox="0 0 100 100"><path d="M31.2 87.5L68.8 50 31.2 12.5v75zM55.5 50L40.6 64.9V35.1L55.5 50z"/></symbol><symbol id="icon-caretDown" viewBox="0 0 100 100"><path d="M9.5 34.7L50 75.3l40.5-40.5h-81zm24.4 10.2h32.2L50 60.9l-16.1-16z"/></symbol><symbol id="icon-chat" viewBox="0 0 100 100"><path d="M10,2.5C4.5,2.5,0,7,0,12.5v60l15-15h15v15c0,5.5,4.5,10,10,10h45l15,15v-60c0-5.5-4.5-10-10-10H70v-15c0-5.5-4.5-10-10-10
		H10z M10,12.5h50v35H10V12.5z M70,37.5h20v35H40v-15h20c5.5,0,10-4.5,10-10V37.5z"/></symbol><symbol id="icon-thumbsUp" viewBox="0 0 100 100"><path d="M46 0l-4.4 19.5-18 15.3c-2.2 1.9-3.5 4.7-3.5 7.6V90c0 5.5 4.5 10 10 10h43.1c3.8 0 7.2-2.1 8.9-5.5l17.1-33.8c.6-1.1.8-2.3.8-3.4V45.1c0-5.5-4.5-10-10-10H67c1.4-4.4 2.8-10.1 2.8-15.7 0-8.7-5.4-14.3-10.3-16.7C54.7.3 50 .2 50 .2L46 0zm7.6 11.2c.7.2.8 0 1.5.4 2.7 1.3 4.7 2.8 4.7 7.8 0 6.9-4.6 18.7-4.6 18.7L52.3 45h37.5v11.6L73 90H29.9V42.4l20.6-17.5 3.1-13.7zM0 35.1V100h10V35.1H0z"/></symbol><symbol id="icon-thumbsDown" viewBox="0 0 100 100"><path d="M0 4.5V59h27.3c0 2.4 1 4.7 2.7 6.4l29.9 30 3.9-3.9c2.2-2.2 3.2-5.4 2.5-8.4L62 63.6h28.9c5 0 9.1-4.1 9.1-9.1v-9.1c0-1.2-.3-2.5-.7-3.6L85.6 10c-1.4-3.3-4.7-5.5-8.4-5.5H36.4c-1.7 0-3.2.5-4.5 1.3-1.3-.8-2.9-1.3-4.5-1.3H0zm9.1 9.1h18.2V50H9.1V13.6zm27.3 0h40.9L91 45.5v9.1H50.8l2.4 11L56 78.8 36.4 59.1V13.6z"/></symbol><symbol id="icon-dollar" viewBox="0 0 100 100">
<path d="M67.5,52.2c-3.3-2.1-8-4-13.9-5.7c-6-1.7-10.2-3.7-12.8-5.8c-2.6-2.1-3.9-5-3.9-8.6c0-3.9,1.2-6.9,3.7-9
	c2.5-2.2,6-3.2,10.7-3.2c4.5,0,8,1.5,10.6,4.4c2.6,2.9,3.9,6.9,3.9,11.8l0,0.4h10.8l0-0.4c0-7.2-1.8-12.9-5.5-17
	c-3.7-4.1-8.8-6.6-15.3-7.4l0,0V0h-9.1v11.6c-6.3,0.8-11.3,2.9-15,6.5c-3.7,3.7-5.6,8.4-5.6,14.2c0,5.7,1.9,10.3,5.7,14
	c3.8,3.7,9.9,6.6,18.2,8.9c6,1.8,10.2,3.8,12.7,6c2.5,2.2,3.8,4.9,3.8,8.2c0,3.8-1.5,6.8-4.4,9.1c-2.9,2.2-7,3.3-12.1,3.3
	c-5.2,0-9.3-1.3-12.1-3.9s-4.3-6.4-4.3-11.3H22.7c0,6.9,2.1,12.4,6.2,16.5c4,3.9,9.5,6.2,16.5,6.9V100h9.1V90l0.1,0
	c7.1-0.7,12.7-2.8,16.7-6.4c4-3.6,5.9-8.4,5.9-14.3c0-3.7-0.8-7-2.4-9.7C73.3,56.7,70.9,54.3,67.5,52.2z"/>
</symbol><symbol id="icon-download" viewBox="0 0 100 100"><path d="M42.5 0C38.4 0 35 3.4 35 7.5V40H12.9L50 77.1 87.1 40H65V7.5C65 3.4 61.6 0 57.5 0h-15zM45 10h10v40h7.9L50 62.9 37.1 50H45V10zM0 90v10h100V90H0z"/></symbol><symbol id="icon-shoppingCart" viewBox="0 0 100 100"><path d="M17.1 0L0 .1v10h10.3l16.5 39.5-6 9.6c-2 3.2-2.1 7.2-.3 10.5s5.3 5.3 9.1 5.3H90V65H29.7l-.3-.6 5.9-9.4h37.3c3.6 0 7-2 8.7-5.1l18-32.4c.9-1.5.8-3.4-.1-5C98.4 11 96.7 10 95 10H21.2L17.1 0zm8.3 20h61.1L72.6 45H35.8L25.4 20zM30 80c-5.5 0-10 4.5-10 10s4.5 10 10 10 10-4.5 10-10-4.5-10-10-10zm50 0c-5.5 0-10 4.5-10 10s4.5 10 10 10 10-4.5 10-10-4.5-10-10-10z"/></symbol><symbol id="icon-euro" viewBox="0 0 100 100">
<path d="M66.8,89.5c-7.7,0-13.6-2.3-17.8-7c-3.9-4.4-6-10.7-6.4-18.6h29.7v-9.7H42.4v-9.7h29.9v-9.7H42.7c0.5-7.4,2.6-13.3,6.4-17.4
	c4.1-4.5,10-6.8,17.6-6.8c5.1,0,10.2,0.8,15.3,2.3l1.4-10.8C77.1,0.7,71.5,0,66.5,0C55.3,0,46.3,3.2,39.7,9.6
	c-6.2,6-9.6,14.5-10.4,25.1H16.7v9.7h12.5v9.7H16.7v9.7h12.5c0.5,11.2,3.9,20.1,10.2,26.3c6.6,6.5,15.7,9.8,27.2,9.8
	c5.6,0,11.1-0.7,16.7-2l-1.4-10.8C77.2,88.8,72.1,89.5,66.8,89.5z"/>
</symbol><symbol id="icon-externalLink" viewBox="0 0 100 100"><path d="M11.1 0C5 0 0 5 0 11.1v77.8C0 95 5 100 11.1 100h77.8c6.1 0 11.1-5 11.1-11.1V50H88.9v38.9H11.1V11.1H50V0H11.1zm50 0v11.1H81L29.4 62.7l7.9 7.9L88.9 19v19.9H100V0H61.1z"/></symbol><symbol id="icon-facebook" viewBox="0 0 100 100">
<path d="M50,0C22.4,0,0,22.4,0,50s22.4,50,50,50s50-22.4,50-50S77.6,0,50,0z M50,10c22.2,0,40,17.8,40,40
	c0,20.1-14.7,36.6-33.9,39.5V61.9h11.6l1.8-11.8H56.1v-6.5c0-4.9,1.6-9.3,6.2-9.3h7.4V24c-1.3-0.2-4-0.6-9.2-0.6
	c-10.8,0-17.2,5.7-17.2,18.7v7.9H32.1v11.8h11.1v27.5C24.4,86.2,10,69.9,10,50C10,27.8,27.8,10,50,10z"/>
</symbol><symbol id="icon-filter" viewBox="0 0 100 100"><path d="M0 0v11.1h5.6l27.8 44.4V100h33.3V55.6l27.8-44.4h5.6V0H0zm18.7 11.1h62.7L55.6 52.4v36.5H44.4V52.4L18.7 11.1z"/></symbol><symbol id="icon-wpforms" viewBox="0 0 100 100"><path d="M11.1 0C5 0 0 5 0 11.1v77.8C0 95 5 100 11.1 100h77.8c6.1 0 11.1-5 11.1-11.1V11.1C100 5 95 0 88.9 0H11.1zm0 11.1h77.8v11.1H11.1V11.1zm0 22.2h77.8v55.6H11.1V33.3zm11.1 5.6V50H50V38.9H22.2zM50 55.6v11.1h27.8V55.6H50zM22.2 72.2v11.1H50V72.2H22.2z"/></symbol><symbol id="icon-questionMark" viewBox="0 0 100 100"><path d="M50 0C22.4 0 0 22.4 0 50s22.4 50 50 50 50-22.4 50-50S77.6 0 50 0zm0 10c22.2 0 40 17.8 40 40S72.2 90 50 90 10 72.2 10 50s17.8-40 40-40zm0 10c-11 0-20 9-20 20h10c0-5.5 4.5-10 10-10s10 4.5 10 10c0 10-15 11.8-15 25h10c0-8.3 15-12.5 15-25 0-11-9-20-20-20zm-5 50v10h10V70H45z"/></symbol><symbol id="icon-bars" viewBox="0 0 100 100"><path d="M0 15v10h100V15H0zm0 30v10h100V45H0zm0 30v10h100V75H0z"/></symbol><symbol id="icon-googlePlus" viewBox="0 0 100 100">
<path d="M50,0C22.4,0,0,22.4,0,50s22.4,50,50,50s50-22.4,50-50S77.6,0,50,0z M40,70c-11,0-20-9-20-20s9-20,20-20
	c5.2,0,9.9,2,13.5,5.3L48,40.5c-2.2-1.8-4.9-3-8-3c-6.9,0-12.5,5.6-12.5,12.5S33.1,62.5,40,62.5c6,0,11.1-4.3,12.2-10H40V45h19.3
	c0.4,1.6,0.7,3.3,0.7,5C60,61,51,70,40,70z M80,50v7.5h-5V50h-7.5v-5H75v-7.5h5V45h7.5v5H80z M90,50c0,22.1-17.9,40-40,40
	S10,72.1,10,50s17.9-40,40-40S90,27.9,90,50z"/>
</symbol><symbol id="icon-check" viewBox="0 0 100 100"><path d="M92.3 11.7L31 73 7.7 49.7 0 57.4l31 31 69-69-7.7-7.7z"/></symbol><symbol id="icon-checkSquare" viewBox="0 0 100 100"><path d="M11.1 0C5 0 0 5 0 11.1v77.8C0 95 5 100 11.1 100h77.8c6.1 0 11.1-5 11.1-11.1V11.1C100 5 95 0 88.9 0H11.1zm0 11.1h77.8v77.8H11.1V11.1zm62.7 18.3l-35 35-12.6-12.8-7.9 7.9 20.6 20.6 42.8-42.8-7.9-7.9z"/></symbol><symbol id="icon-heart" viewBox="0 0 100 100"><path d="M72.5 4.1C58 4.1 50 14.6 50 14.6S42 4.1 27.5 4.1C12.3 4.1 0 16.4 0 31.6 0 52.5 24.6 72.7 31.4 79 39.3 86.4 50 95.9 50 95.9s10.7-9.4 18.6-16.8c6.8-6.4 31.4-26.6 31.4-47.4 0-15.3-12.3-27.6-27.5-27.6zm-8.4 65.6c-.9.8-1.7 1.5-2.3 2.1-3.8 3.5-8.2 7.5-11.8 10.7-3.6-3.2-8-7.2-11.8-10.7-.6-.6-1.4-1.3-2.3-2.1C28.8 63.3 10 46.2 10 31.6c0-9.6 7.9-17.5 17.5-17.5 9.1 0 14.4 6.4 14.6 6.5l7.9 8.5 7.9-8.5c0-.1 5.4-6.5 14.6-6.5C82.2 14.1 90 22 90 31.6c0 14.6-18.8 31.7-25.9 38.1z"/></symbol><symbol id="icon-info" viewBox="0 0 100 100"><path d="M50 0C22.4 0 0 22.4 0 50s22.4 50 50 50 50-22.4 50-50S77.6 0 50 0zm0 10c22.2 0 40 17.8 40 40S72.2 90 50 90 10 72.2 10 50s17.8-40 40-40zm-5 15v10h10V25H45zm0 20v30h10V45H45z"/></symbol><symbol id="icon-instagram" viewBox="0 0 100 100">
<path d="M27.8,0C12.5,0,0,12.5,0,27.8v44.4C0,87.5,12.5,100,27.8,100h44.4c15.3,0,27.8-12.5,27.8-27.8V27.8C100,12.5,87.5,0,72.2,0
	H27.8z M27.8,11.1h44.4c9.2,0,16.7,7.5,16.7,16.7v44.4c0,9.2-7.5,16.7-16.7,16.7H27.8c-9.2,0-16.7-7.5-16.7-16.7V27.8
	C11.1,18.6,18.6,11.1,27.8,11.1z M77.8,16.7c-3.1,0-5.6,2.5-5.6,5.6s2.5,5.6,5.6,5.6s5.6-2.5,5.6-5.6S80.8,16.7,77.8,16.7z M50,22.2
	c-15.3,0-27.8,12.5-27.8,27.8S34.7,77.8,50,77.8S77.8,65.3,77.8,50S65.3,22.2,50,22.2z M50,33.3c9.2,0,16.7,7.5,16.7,16.7
	S59.2,66.7,50,66.7S33.3,59.2,33.3,50S40.8,33.3,50,33.3z"/>
</symbol><symbol id="icon-mapMarker" viewBox="0 0 100 100"><path d="M50 0C30.7 0 15 15.7 15 35c0 22.4 29.8 58.8 31.1 60.4L50 100l3.9-4.7C55.1 93.8 85 57.4 85 35 85 15.7 69.3 0 50 0zm0 10c13.8 0 25 11.2 25 25 0 13.5-15.6 36.8-25 49.1C40.6 71.8 25 48.5 25 35c0-13.8 11.2-25 25-25zm0 12.4c-6.9 0-12.5 5.6-12.5 12.5S43.1 47.4 50 47.4s12.5-5.6 12.5-12.5S56.9 22.4 50 22.4z"/></symbol><symbol id="icon-cross" viewBox="0 0 100 100"><path d="M8.1 0L0 8.1 41.9 50 0 91.9l8.1 8.1L50 58.1 91.9 100l8.1-8.1L58.1 50 100 8.1 91.9 0 50 41.9 8.1 0z"/></symbol><symbol id="icon-spinner" viewBox="0 0 100 100"><path d="M52.8 0c-7.7 0-13.9 6.2-13.9 13.9s6.2 13.9 13.9 13.9 13.9-6.2 13.9-13.9S60.4 0 52.8 0zM16.7 16.7c-6.1 0-11.1 5-11.1 11.1s5 11.1 11.1 11.1 11.1-5 11.1-11.1-5-11.1-11.1-11.1zm66.6 5.5c-3.1 0-5.6 2.5-5.6 5.6s2.5 5.6 5.6 5.6 5.6-2.5 5.6-5.6-2.5-5.6-5.6-5.6zM8.3 50C3.7 50 0 53.7 0 58.3s3.7 8.3 8.3 8.3 8.3-3.7 8.3-8.3S12.9 50 8.3 50zm86.1 0c-3.1 0-5.6 2.5-5.6 5.6s2.5 5.6 5.6 5.6 5.6-2.5 5.6-5.6-2.5-5.6-5.6-5.6zM25 77.8c-4.6 0-8.3 3.7-8.3 8.3 0 4.6 3.7 8.3 8.3 8.3s8.3-3.7 8.3-8.3-3.7-8.3-8.3-8.3zm58.3 0c-3.1 0-5.6 2.5-5.6 5.6s2.5 5.6 5.6 5.6 5.6-2.5 5.6-5.6-2.5-5.6-5.6-5.6zm-30.5 5.5c-4.6 0-8.3 3.7-8.3 8.3 0 4.6 3.7 8.3 8.3 8.3s8.3-3.7 8.3-8.3c0-4.5-3.7-8.3-8.3-8.3z"/></symbol><symbol id="icon-truck" viewBox="0 0 100 100"><path d="M9.1 13.5c-5 0-9.1 4.1-9.1 9.1v50.2h9.1c0 7.5 6.1 13.6 13.6 13.6s13.6-6.1 13.6-13.6h27.3c0 7.5 6.1 13.6 13.6 13.6S91 80.4 91 72.9h9V50.1L87.9 25.2c-.8-1.5-2.3-2.5-4.1-2.5H68.4v-9.1H9.1v-.1zm0 9.3h50.2v40.9H32.9c-2.5-2.8-6.1-4.5-10.1-4.5s-7.6 1.8-10.1 4.5H9.1V22.8zm59.3 9H81l4.5 9.1H68.4v-9.1zm0 18.3h21.8l1.1 2.1v11.5h-3.5c-2.5-2.8-6.1-4.5-10.1-4.5-3.5 0-6.7 1.4-9.1 3.5V50.1c0 .1-.2.1-.2 0zM22.8 67.2c3.1 0 5.7 2.6 5.7 5.7s-2.5 5.7-5.7 5.7-5.7-2.5-5.7-5.7c0-3.3 2.6-5.7 5.7-5.7zm54.7 0c3.1 0 5.7 2.6 5.7 5.7s-2.6 5.7-5.7 5.7-5.7-2.6-5.7-5.7 2.5-5.7 5.7-5.7z"/></symbol><symbol id="icon-linkedin" viewBox="0 0 100 100">
<path d="M11.1,0C5,0,0,5,0,11.1v77.8C0,95,5,100,11.1,100h77.8c6.1,0,11.1-5,11.1-11.1V11.1C100,5,95,0,88.9,0H11.1z M11.1,11.1
	h77.8v77.8H11.1V11.1z M26.6,18.4c-4.8,0-7.6,2.9-7.6,6.7s2.9,6.7,7.1,6.7c4.8,0,7.6-2.9,7.6-6.7S30.8,18.4,26.6,18.4z M19.3,38.9
	v38.9h14V38.9H19.3z M44.9,38.9v38.9h14V56.5c0-6.3,4.5-7.2,5.9-7.2c1.4,0,5,1.4,5,7.2v21.3h13.6V56.5c0-12.2-5.4-17.6-12.2-17.6
	c-6.8,0-10.4,2.3-12.2,5.4v-5.4H44.9z"/>
</symbol><symbol id="icon-list" viewBox="0 0 100 100"><path d="M7.3 13.4c-4 0-7.3 3.3-7.3 7.3S3.3 28 7.3 28s7.3-3.3 7.3-7.3-3.2-7.3-7.3-7.3zm19.5 2.5v9.8H100v-9.8H26.8zM7.3 42.7C3.3 42.7 0 46 0 50s3.3 7.3 7.3 7.3 7.3-3.3 7.3-7.3-3.2-7.3-7.3-7.3zm19.5 2.4v9.8H100v-9.8H26.8zM7.3 72c-4 0-7.3 3.3-7.3 7.3s3.3 7.3 7.3 7.3 7.3-3.3 7.3-7.3c0-4.1-3.2-7.3-7.3-7.3zm19.5 2.4v9.8H100v-9.8H26.8z"/></symbol><symbol id="icon-trash" viewBox="0 0 100 100"><path d="M40 0l-5 5H10v10h5v75c0 2.6 1 5.3 2.8 7.2s4.5 2.8 7.2 2.8h50c2.6 0 5.3-1 7.2-2.8S85 92.6 85 90V15h5V5H65l-5-5H40zM25 15h50v75H25V15zm10 10v55h10V25H35zm20 0v55h10V25H55z"/></symbol><symbol id="icon-arrowCircleRight" viewBox="0 0 100 100"><path d="M50 0C22.4 0 0 22.4 0 50s22.4 50 50 50 50-22.4 50-50S77.6 0 50 0zm0 10c22.2 0 40 17.8 40 40S72.2 90 50 90 10 72.2 10 50s17.8-40 40-40zm7.3 20.2l-7.1 7.1 7.7 7.7H25v10h32.9l-7.7 7.7 7.1 7.1L77.1 50 57.3 30.2z"/></symbol><symbol id="icon-pound" viewBox="0 0 100 100">
<path d="M35.3,88.9c2.7-4,4.1-9.4,4.1-16l-0.3-13.1h24.8V50H38.5l-0.6-20.7c0-5.6,1.5-10.1,4.5-13.6c3-3.5,7-5.2,11.8-5.2
	c5.1,0,9.2,1.4,12.2,4.2c2.9,2.8,4.4,6.6,4.4,11.4v1.6h13.3l0-1.6c0-7.9-2.6-14.3-7.7-19S64.2,0,55.4,0c-9.3,0-16.8,2.7-22.5,8
	c-5.7,5.3-8.5,12.5-8.5,21.4L25,50H13.9v9.7h11.6l0.5,13.2v0.5c-0.1,4.3-0.7,7.9-1.9,10.8c-0.9,2.4-2.1,3.9-3.5,4.6h-6.7V100h72.2
	V88.9H35.3z"/>
</symbol><symbol id="icon-pinterest" viewBox="0 0 100 100">
<path d="M50,0C22.4,0,0,22.4,0,50s22.4,50,50,50s50-22.4,50-50S77.6,0,50,0z M50,10c22.1,0,40,17.9,40,40S72.1,90,50,90
	c-3.7,0-7.2-0.5-10.6-1.5c1.1-2.1,2-4.4,2.5-6.4c0.6-2.2,2.9-11.2,2.9-11.2c1.5,2.9,6,5.4,10.8,5.4c14.2,0,24.4-13,24.4-29.2
	C80,31.6,67.3,20,51,20c-20.3,0-31,13.6-31,28.4c0,6.9,3.7,15.5,9.5,18.2c0.9,0.4,1.4,0.2,1.6-0.6c0.2-0.7,1-3.8,1.3-5.3
	c0.1-0.5,0.1-0.9-0.3-1.3c-1.9-2.4-3.5-6.7-3.5-10.7c0-10.4,7.8-20.4,21.2-20.4c11.5,0,19.6,7.9,19.6,19.1
	c0,12.7-6.4,21.5-14.8,21.5c-4.6,0-8.1-3.8-7-8.5c1.3-5.6,3.9-11.6,3.9-15.6c0-3.6-1.9-6.6-5.9-6.6c-4.7,0-8.5,4.9-8.5,11.4
	c0,4.2,1.4,7,1.4,7S33.9,76.2,33,79.8c-0.4,1.8-0.6,4-0.6,6.1C19.2,79.4,10,65.8,10,50C10,27.9,27.9,10,50,10z"/>
</symbol><symbol id="icon-angleUp" viewBox="0 0 100 100"><path d="M50 15.4l-40.5 27v52.2l40.5-27 40.5 27V42.4L50 15.4zm0 10.8l31.5 20.9v10L50 36.1 18.5 57V47L50 26.2zm0 20.7L81.5 68v9.9L50 56.8 18.5 77.7v-9.9L50 46.9z"/></symbol><symbol id="icon-squareO" viewBox="0 0 100 100"><path d="M11.1 0C5 0 0 5 0 11.1v77.8C0 95 5 100 11.1 100h77.8c6.1 0 11.1-5 11.1-11.1V11.1C100 5 95 0 88.9 0H11.1zm0 11.1h77.8v77.8H11.1V11.1z"/></symbol><symbol id="icon-grid" viewBox="0 0 100 100"><path d="M11.1 0C5 0 0 5 0 11.1v22.2c0 6.1 5 11.1 11.1 11.1h22.2c6.1 0 11.1-5 11.1-11.1V11.1C44.4 5 39.4 0 33.3 0H11.1zm55.6 0c-6.1 0-11.1 5-11.1 11.1v22.2c0 6.1 5 11.1 11.1 11.1h22.2c6.1 0 11.1-5 11.1-11.1V11.1C100 5 95 0 88.9 0H66.7zM11.1 11.1h22.2v22.2H11.1V11.1zm55.6 0h22.2v22.2H66.7V11.1zM11.1 55.6C5 55.6 0 60.6 0 66.7v22.2C0 95 5 100 11.1 100h22.2c6.1 0 11.1-5 11.1-11.1V66.7c0-6.1-5-11.1-11.1-11.1H11.1zm55.6 0c-6.1 0-11.1 5-11.1 11.1v22.2c0 6.1 5 11.1 11.1 11.1h22.2c6.1 0 11.1-5 11.1-11.1V66.7c0-6.1-5-11.1-11.1-11.1H66.7zM11.1 66.7h22.2v22.2H11.1V66.7zm55.6 0h22.2v22.2H66.7V66.7z"/></symbol><symbol id="icon-recentSales" viewBox="0 0 100 100">
<g>
	<path d="M42.5,0l-20,55h25L30,100h7.5l40-55H55L75,0H42.5z"/>
</g>
</symbol><symbol id="icon-recentVisits" viewBox="0 0 100 100">
<g>
	<path d="M42.5,0l-20,55h25L30,100h7.5l40-55H55L75,0H42.5z"/>
</g>
</symbol><symbol id="icon-undo" viewBox="0 0 100 100"><path d="M0 28v44h44L26.3 54.3c6.8-5.7 15.5-9.2 25-9.2 17.3 0 31.9 11.2 37.1 26.8L100 68c-6.8-20.4-26-35.1-48.7-35.1-12.9 0-24.7 4.8-33.7 12.7L0 28z"/></symbol><symbol id="icon-backward" viewBox="0 0 100 100"><path d="M48.9 22.2L9.5 50 49 77.8V22.2zm41.6 0L51.1 50l39.5 27.8V22.2zM39.6 40.1V60L25.5 50l14.1-9.9zm41.8 0V60L67.2 50l14.2-9.9z"/></symbol><symbol id="icon-lock" viewBox="0 0 100 100"><path d="M50,0C34.2,0,21.4,12.7,21.4,28.6v4.8c-5.2,0-9.5,4.3-9.5,9.5v47.6c0,5.2,4.3,9.5,9.5,9.5h57.1c5.2,0,9.5-4.3,9.5-9.5V42.9
		c0-5.2-4.3-9.5-9.5-9.5v-4.8C78.6,12.7,65.8,0,50,0z M50,9.5c10.8,0,19,8.2,19,19v4.8H31v-4.8C31,17.7,39.2,9.5,50,9.5z M21.4,42.9
		h57.1v47.6H21.4V42.9z M50,57.1c-5.2,0-9.5,4.3-9.5,9.5s4.3,9.5,9.5,9.5s9.5-4.3,9.5-9.5S55.2,57.1,50,57.1z"/></symbol><symbol id="icon-wrench" viewBox="0 0 100 100"><path d="M68.4 0C51 0 36.8 14.2 36.8 31.6c0 2.8.8 5.2 1.5 7.8L13.9 63.8C5.9 65.9 0 73 0 81.6 0 91.7 8.3 100 18.4 100c8.5 0 15.7-5.9 17.8-13.9l24.5-24.5c2.5.7 5 1.5 7.8 1.5C85.8 63.2 100 49 100 31.6c0-4.1-.8-8-2.2-11.5l-2.9-7.5-12.2 12.2c-1 1-2.4 1.5-3.7 1.5-1.4 0-2.7-.5-3.7-1.5-2.1-2.1-2.1-5.3 0-7.4L87.4 5.2l-7.5-2.9C76.4.8 72.5 0 68.4 0zm-1 10.7c-5.5 6.2-5.6 15.6.3 21.5 3.1 3.1 7.1 4.6 11.2 4.6 3.7 0 7.4-1.6 10.3-4.3-.5 11.2-9.5 20.1-20.9 20.1-2.7 0-5.2-.5-7.7-1.5l-3.2-1.3-23 23c-1.7-3.1-4.3-5.7-7.4-7.4l23-23-1.3-3.2c-1-2.4-1.5-5-1.5-7.7.2-11.3 9-20.2 20.2-20.8zm-49 63c4.4 0 7.9 3.5 7.9 7.9s-3.5 7.9-7.9 7.9-7.9-3.5-7.9-7.9 3.5-7.9 7.9-7.9z"/></symbol><symbol id="icon-skype" viewBox="0 0 100 100">
<path d="M27.5,0C12.3,0,0,12.3,0,27.5c0,6.2,2,11.8,5.5,16.4c-0.3,2-0.5,4-0.5,6.1c0,24.9,20.1,45,45,45c2.1,0,4.1-0.2,6.1-0.5
	c4.6,3.4,10.2,5.5,16.4,5.5c15.2,0,27.5-12.3,27.5-27.5c0-6.2-2-11.8-5.5-16.4c0.3-2,0.5-4,0.5-6.1C95,25.1,74.9,5,50,5
	c-2.1,0-4.1,0.2-6.1,0.5C39.3,2,33.7,0,27.5,0z M27.5,10c3.8,0,7.4,1.2,10.4,3.5l3.3,2.4l4-0.5c1.9-0.3,3.4-0.4,4.8-0.4
	c19.3,0,35,15.7,35,35c0,1.4-0.1,2.9-0.4,4.8l-0.5,4l2.4,3.3c2.3,3.1,3.5,6.7,3.5,10.4C90,82.2,82.2,90,72.5,90
	c-3.8,0-7.4-1.2-10.4-3.5l-3.3-2.4l-4,0.5C52.9,84.9,51.4,85,50,85c-19.3,0-35-15.7-35-35c0-1.4,0.1-2.9,0.4-4.8l0.5-4l-2.4-3.3
	c-2.3-3.1-3.5-6.7-3.5-10.4C10,17.9,17.9,10,27.5,10z M49.2,25c-18.8,0-20.2,11-20.2,13.8c0,5.4,3.1,9.6,8.4,11.7
	c5.6,2.2,12.5,3.5,16.4,4.5c6.1,1.7,5.3,5,5.3,5.5c0,5.2-7.1,6.5-10.1,6.2c-3.4-0.3-6.8,0.7-10.4-6.7c-0.6-1.3-1.8-4.2-5.4-4.2
	c-1.5,0-5.4,1.2-5.4,4.8C28,67.7,36,75,49.9,75c7.3,0,20.8-2.5,20.8-15.6c0-11.4-11.5-13.3-19.9-15.5c-2.3-0.6-10.9-1.5-10.9-6
	c0-1.3,1.9-4.5,8.6-4.5c6.9,0,8.4,3.2,9.4,4.9c0.8,1.3,1.4,2.4,2.2,2.9c3.1,2,5.9,0.5,6.9-0.6c1-1,1.5-2.2,1.5-3.5
	C68.5,31.4,61.8,25,49.2,25z"/>
</symbol><symbol id="icon-save" viewBox="0 0 100 100"><path d="M11.1 0C5 0 0 5 0 11.1v77.8C0 95 5 100 11.1 100h77.8c6.1 0 11.1-5 11.1-11.1V22.2L77.8 0H11.1zm0 11.1h62.1l15.7 15.7v62.1H11.1V11.1zm11.1 11.1v16.7h44.4V22.2H22.2zm25 27.8c-7.7 0-13.9 6.2-13.9 13.9s6.2 13.9 13.9 13.9 13.9-6.2 13.9-13.9S54.9 50 47.2 50z"/></symbol><symbol id="icon-languageSelection" viewBox="0 0 100 100">
<path d="M10,0C4.5,0,0,4.5,0,10v60c0,5.5,4.5,10,10,10h70l20,20l-0.1-90c0-5.5-4.5-10-10-10H10z M10,10h80l0,65.8L84.1,70H10V10z
	 M67,15.1v5.1H55v6.6h23.6c0,12.6-10.4,20.4-10.4,20.4s-7.1-4-7.1-12h-6c0,9.8,6.3,14.7,6.3,14.7s-2.8,3.5-6.3,3.5V60
	c6.9,0,12.9-5.5,12.9-5.5c0,0,4.3,5.5,12.2,5.5v-6.7c-3,0-4.7-3.4-4.7-3.4S85,41,85,26.8v-6.6H72.9v-5.1H67z M28.9,20L15,60h8.2
	l2.6-8.3h13.4l2.6,8.3H50L36,20H28.9z M32.5,30.2l4.6,15h-9.3L32.5,30.2z"/>
</symbol><symbol id="icon-star" viewBox="0 0 100 100"><path d="M100 38.7H62.5L50 2.4 37.5 38.7 0 38.8l29.7 22.8-10.6 36L50 76.4l30.9 21.2-10.6-36L100 38.7z"/></symbol><symbol id="icon-starHalfOutlined" viewBox="0 0 100 100"><path d="M100 38.7H62.5L50 2.4 37.5 38.7 0 38.8l29.7 22.8-10.6 36L50 76.4l30.9 21.2-10.6-36L100 38.7zM50 65.4V29.5l6.1 18.2h18.2L59.9 58.2 65 75.7 50 65.4z"/></symbol><symbol id="icon-starOutlined" viewBox="0 0 100 100"><path d="M100 38.8l-37.5-1L50 2.4 37.5 37.8 0 38.8l29.7 22.8-10.6 36L50 76.4l30.9 21.2-10.6-36L100 38.8zM50 65.4L35 75.7l5.1-17.4-14.4-11.2 18.2-.5L50 29.5l6.1 17.1 18.2.5-14.4 11.1L65 75.7 50 65.4z"/></symbol><symbol id="icon-search" viewBox="0 0 100 100"><path d="M35 0C15.7 0 0 15.7 0 35s15.7 35 35 35c8.7 0 16.7-3.3 22.9-8.6l2.1 2.1V70l30 30 10-10-30-30h-6.5l-2.1-2.1C66.7 51.7 70 43.7 70 35 70 15.7 54.3 0 35 0zm0 10c13.9 0 25 11.1 25 25S48.9 60 35 60 10 48.9 10 35s11.1-25 25-25z"/></symbol><symbol id="icon-phone" viewBox="0 0 100 100">
<path d="M94.6,69.4c-3.5-0.1-7.9-0.3-10.7-0.8c-3-0.5-6.6-1.6-9.2-2.4c-2-0.6-4.2-0.1-5.7,1.4L56.7,79.9
	c-8.5-4.5-15.3-9.7-21.1-15.5c-5.8-5.8-11-12.6-15.5-21.1L32.4,31c1.5-1.5,2-3.7,1.4-5.7c-0.8-2.5-1.8-6.2-2.4-9.2
	c-0.5-2.8-0.7-7.2-0.8-10.7c-0.1-3-2.5-5.4-5.6-5.4H5.6C3.1,0,0,1.8,0,5.6c0,25.2,10.2,49.3,27.6,66.9C45.1,89.8,69.2,100,94.4,100
	c3.7,0,5.6-3.1,5.6-5.6V74.9C100,71.9,97.6,69.5,94.6,69.4z"/>
</symbol><symbol id="icon-tiktok" viewBox="0 0 100 100">
<path d="M16.7,0C7.5,0,0,7.5,0,16.7v66.7C0,92.5,7.5,100,16.7,100h66.7c9.1,0,16.7-7.5,16.7-16.7V16.7C100,7.5,92.5,0,83.3,0H16.7z
	 M16.7,11.1h66.7c3.1,0,5.6,2.4,5.6,5.6v66.7c0,3.1-2.4,5.6-5.6,5.6H16.7c-3.1,0-5.6-2.4-5.6-5.6V16.7
	C11.1,13.5,13.5,11.1,16.7,11.1z M50,22.2v38.9c0,3.1-2.4,5.6-5.6,5.6c-3.1,0-5.6-2.4-5.6-5.6s2.4-5.6,5.6-5.6V44.4
	c-9.1,0-16.7,7.5-16.7,16.7s7.5,16.7,16.7,16.7s16.7-7.5,16.7-16.7V40.2c3.4,2.4,7,4.3,11.1,4.3V33.3c-0.3,0-4.1-1.2-6.8-3.5
	c-2.7-2.3-4.3-5.3-4.3-7.6H50z"/>
</symbol><symbol id="icon-twitch" viewBox="0 0 100 100"><path d="M18.4,0l-16,22.1v63.6h23.8V100h14.3l14.3-14.3h19l23.8-23.8V0H18.4z M21.4,9.5h66.7v42.9L73.8,66.7H50L35.7,81V66.7H21.4
		V9.5z M45.2,23.8v23.8h9.5V23.8H45.2z M69,23.8v23.8h9.5V23.8H69z"/></symbol><symbol id="icon-twitter" viewBox="0 0 100 100">
<path d="M100,10c-3.9,2.3-11.7,5.5-16.3,6.4c-0.1,0-0.2,0.1-0.4,0.1c-4.1-4-9.6-6.5-15.8-6.5C55.1,10,45,20.1,45,32.5
	c0,0.7-0.1,1.9,0,2.5c-16.8,0-29.5-8.8-38.7-20c-1,2.5-1.4,6.4-1.4,10.2c0,7,5.5,13.9,14,18.1c-1.6,0.4-3.3,0.7-5.1,0.7
	c-2.9,0-6-0.8-8.8-3.1c0,0.1,0,0.2,0,0.3C5,51,15.4,57.6,24.6,59.5c-1.9,1.1-5.7,1.2-7.5,1.2c-1.3,0-5.9-0.6-7.1-0.8
	c2.6,8,11.8,12.5,20.7,12.7C23.8,78,19,80,4.8,80H0c8.9,5.7,20.3,10,31.7,10C68.9,90,90,61.7,90,35c0-0.4,0-1.3,0-2.2
	c0-0.1,0-0.2,0-0.3c0-0.1,0-0.3,0-0.4c0-0.7,0-1.3,0-1.6c4-2.9,7.4-6.4,10.1-10.5c-3.6,1.6-7.5,2.7-11.6,3.2
	C92.6,20.7,98.5,14.7,100,10z M80,35c0,20.4-14.8,42-42.3,44.7c3.7-2.6,7.3-6.4,7.3-6.4S30,60,28.9,42.6C34.1,44.2,39.4,45,45,45h10
	V32.5c0,0,0,0,0,0C55,25.6,60.6,20,67.5,20C74.4,20,80,25.6,80,32.5C80,32.5,80,34.6,80,35z"/>
</symbol><symbol id="icon-envelope" viewBox="0 0 100 100"><path d="M10 10C4.5 10 0 14.5 0 20v60c0 5.5 4.5 10 10 10h80c5.5 0 10-4.5 10-10V20c0-5.5-4.5-10-10-10H10zm0 10h80L50 45 10 20zm0 10l40 25 40-25v50H10V30z"/></symbol><symbol id="icon-unlink" viewBox="0 0 100 100"><path d="M21.7,6.5C9.7,6.5,0,16.3,0,28.3S9.7,50,21.7,50h17.4v-8.7H21.7c-7.2,0-13-5.8-13-13s5.8-13,13-13h17.4V6.5H21.7z
		 M56.5,6.5v8.7h17.4c7.2,0,13,5.8,13,13s-5.8,13-13,13H56.5V50h17.4c12,0,21.7-9.7,21.7-21.7S85.9,6.5,73.9,6.5H56.5z M26.1,23.9
		v8.7h43.5v-8.7H26.1z M71.4,58.7l-6.1,6.1l11.2,11.2L65.2,87.3l6.1,6.1l11.3-11.3l11.2,11.2l6.1-6.1L88.8,76.1l10.9-10.9l-6.1-6.1
		L82.6,69.9L71.4,58.7z"/></symbol><symbol id="icon-vimeo" viewBox="0 0 100 100">
<g>
	<path d="M11.1,0C5,0,0,5,0,11.1v77.8C0,95,5,100,11.1,100h36.8h15.5h25.5c6.1,0,11.1-5,11.1-11.1V11.1C100,5,95,0,88.9,0H11.1z
		 M11.1,88.7V11.1h77.8v77.8L11.1,88.7z"/>
	<g>
		<path d="M80.3,35.8C80.1,41.6,76,49.7,68,60.4c-8.2,10.8-15.3,16-20.9,16c-3.5,0-6.5-3.3-9-9.8c-0.6-2-1.4-5.1-2.5-9
			c-1.2-3.9-2-7-2.5-9c-1.8-6.5-3.7-9.8-5.9-9.8c-0.4,0-2,1-4.7,2.9l-2.9-3.7c1-0.8,2.5-2.2,4.5-3.9c2-1.8,3.5-3.1,4.5-3.9
			c3.9-3.3,6.8-5.3,9-5.5c4.9-0.6,7.6,2.7,8.8,9.6c1.2,7.2,2.2,11.9,2.5,13.9c1.4,6.1,2.9,9.2,4.5,9.2c1.2,0,3.1-2.2,5.7-6.1
			c2.5-4.1,3.9-7,4.1-9.2c0.4-3.5-1-5.3-4.1-5.3c-1.4,0-2.9,0.2-4.5,1c2.9-9.8,8.6-14.5,17-14.3C77.8,23.8,80.7,27.9,80.3,35.8z"/>
	</g>
</g>
</symbol><symbol id="icon-warning" viewBox="0 0 100 100"><path d="M50 7.1c-2.7 0-5.4 1.3-6.9 3.8l-42 69.9C-2 85.9 1.9 92.9 8 92.9h84c6 0 10-7 6.9-12.2l-42-69.9c-1.5-2.5-4.2-3.7-6.9-3.7zm0 10.8l39.4 65.5H10.6L50 17.9zm-4.8 17.7v23.9h9.6V35.6h-9.6zm0 33.4v9.6h9.6V69h-9.6z"/></symbol><symbol id="icon-whatsApp" viewBox="0 0 100 100"><path d="M50.1 0C22.5 0 .1 22.4.1 49.9c0 8.8 2.3 17.4 6.7 25L0 100l26.2-6.2c7.3 4 15.5 6.1 23.9 6.1C77.6 99.9 100 77.5 100 50c0-13.3-5.2-25.9-14.6-35.3C76 5.2 63.4 0 50.1 0zm0 10c10.7 0 20.7 4.2 28.3 11.7C85.9 29.3 90 39.3 90 50c0 22-17.9 39.9-40 39.9-6.7 0-13.3-1.7-19.1-4.9l-3.4-1.8-3.7.9-9.8 2.3 2.4-8.9 1.1-4-2.1-3.6c-3.5-6-5.3-12.9-5.3-20 0-22 17.9-39.9 40-39.9zM32.4 26.9c-.8 0-2.2.3-3.3 1.6-1.1 1.2-4.4 4.3-4.4 10.4s4.5 12.1 5.1 12.9c.6.8 8.6 13.8 21.3 18.8 10.5 4.2 12.7 3.3 15 3.1 2.3-.2 7.4-3 8.4-5.9s1-5.4.7-5.9-1.1-.8-2.4-1.5c-1.2-.6-7.4-3.6-8.5-4.1-1.1-.4-2-.6-2.8.6-.8 1.2-3.2 4.1-3.9 4.9-.7.8-1.5.9-2.7.3-1.2-.6-5.3-2-10-6.2-3.7-3.3-6.2-7.4-6.9-8.6-.7-1.2-.1-1.9.6-2.5.6-.6 1.2-1.5 1.9-2.2.6-.7.8-1.3 1.2-2.1s.2-1.6-.1-2.2c-.3-.6-2.7-6.8-3.8-9.3-.9-2.1-1.9-2.1-2.8-2.2-1 .1-1.8.1-2.6.1z"/></symbol><symbol id="icon-reorder" viewBox="0 0 100 100">
<g>
	<path d="M33.2,24.5L24,24.6V30h5.5l8.9,21.2l-3.2,5.2C34.1,58,34,60.2,35,61.9s2.8,2.8,4.9,2.8h32.4v-5.4H39.9L39.7,59l3.2-5h20
		c1.9,0,3.8-1.1,4.7-2.7l9.7-17.4c0.5-0.8,0.4-1.8-0.1-2.7c-0.4-0.8-1.3-1.3-2.3-1.3H35.4L33.2,24.5z M37.6,35.3h32.8L63,48.7H43.2
		L37.6,35.3z M40.1,67.5c-3,0-5.4,2.4-5.4,5.4s2.4,5.4,5.4,5.4s5.4-2.4,5.4-5.4S43.1,67.5,40.1,67.5z M66.9,67.5
		c-3,0-5.4,2.4-5.4,5.4s2.4,5.4,5.4,5.4s5.4-2.4,5.4-5.4S69.9,67.5,66.9,67.5z"/>
	<g>
		<path d="M79.4,21.1h8C79,11.2,66.5,5.4,53.4,5.4C28.8,5.4,8.8,25.4,8.8,50s20,44.6,44.6,44.6c14.5,0,28.2-7.1,36.5-19l1.5-2.2
			l4.4,3.1l-1.6,2.2C85,92,69.7,100,53.4,100c-27.6,0-50-22.4-50-50s22.4-50,50-50C68,0,81.8,6.4,91.2,17.3v-8h5.4v13.4
			c0,2.1-1.7,3.8-3.8,3.8H79.4V21.1z"/>
	</g>
</g>
</symbol><symbol id="icon-chevronLeft" viewBox="0 0 100 100"><path d="M22.9 50l25 37.5H77L52.1 50l25-37.5H47.9L22.9 50zm10 0l19.4-29.1h9.1L42.1 50l19.4 29.1h-9.1L32.9 50z"/></symbol><symbol id="icon-chevronLeftCircle" viewBox="0 0 100 100"><path d="M50 0C22.4 0 0 22.4 0 50s22.4 50 50 50 50-22.4 50-50S77.6 0 50 0zm15 75H50L30 50l20-25h15L45 50l20 25zm25-25c0 22.1-17.9 40-40 40S10 72.1 10 50s17.9-40 40-40 40 17.9 40 40z"/></symbol><symbol id="icon-chevronUp" viewBox="0 0 100 100"><path d="M50 25.7l-40.5 27v31.5l40.5-27 40.5 27V52.8L50 25.7zm0 10.9l31.5 20.9v9.9L50 46.4 18.5 67.5v-9.9l31.5-21z"/></symbol><symbol id="icon-chevronUpCircle" viewBox="0 0 100 100"><path d="M50 100c27.6 0 50-22.4 50-50S77.6 0 50 0 0 22.4 0 50s22.4 50 50 50zm0-55L25 65V50l25-20 25 20v15L50 45zm0 45c-22.1 0-40-17.9-40-40s17.9-40 40-40 40 17.9 40 40-17.9 40-40 40z"/></symbol><symbol id="icon-chevronRight" viewBox="0 0 100 100"><path d="M52.2 12.5H22.9l25 37.5-25 37.5H52L77 50 52.2 12.5zm-4.5 66.6h-9.1L58.1 50 38.6 20.9h9.1L67.2 50 47.7 79.1z"/></symbol><symbol id="icon-chevronRightCircle" viewBox="0 0 100 100"><path d="M50 100c27.6 0 50-22.4 50-50S77.6 0 50 0 0 22.4 0 50s22.4 50 50 50ZM35 25h15l20 25-20 25H35l20-25ZM10 50c0-22.1 17.9-40 40-40s40 17.9 40 40-17.9 40-40 40-40-17.9-40-40Z"/></symbol><symbol id="icon-chevronDown" viewBox="0 0 100 100"><path d="M90.5 57.4V25.7L50 52.8l-40.5-27v31.5l40.5 27 40.5-26.9zm-72-4.9v-9.9L50 63.7l31.5-20.9v9.9L50 73.6 18.5 52.5z"/></symbol><symbol id="icon-chevronDownCircle" viewBox="0 0 100 100"><path d="M0 50c0 27.6 22.4 50 50 50s50-22.4 50-50S77.6 0 50 0 0 22.4 0 50zm75-15v15L50 70 25 50V35l25 20 25-20zm15 15c0 22.1-17.9 40-40 40S10 72.1 10 50s17.9-40 40-40 40 17.9 40 40z"/></symbol><symbol id="icon-xing" viewBox="0 0 100 100">
<g>
	<path d="M11.1,0C5,0,0,5,0,11.1v77.8C0,95,5,100,11.1,100h36.8h15.5h25.5c6.1,0,11.1-5,11.1-11.1V11.1C100,5,95,0,88.9,0H11.1z
		 M11.1,88.7V11.1h77.8v77.8L11.1,88.7z"/>
</g>
<g>
	<g>
		<path d="M33.5,62.8c1,0,1.8-0.6,2.5-1.8c6.3-11.2,9.6-17.1,9.9-17.5l-6.3-11c-0.7-1.2-1.5-1.7-2.5-1.7h-9.2c-0.6,0-1,0.2-1.2,0.6
			c-0.3,0.4-0.3,0.9,0,1.4l6.2,10.7c0,0,0,0,0,0l-9.7,17.2c-0.3,0.5-0.3,0.9,0,1.4c0.3,0.4,0.7,0.7,1.2,0.7H33.5z"/>
		<path d="M75.7,18.2h-9.3c-1,0-1.8,0.6-2.5,1.7C50.8,43.3,44,55.3,43.5,56.2l13,23.9c0.6,1.2,1.5,1.7,2.5,1.7h9.2
			c0.6,0,1-0.2,1.2-0.6c0.3-0.4,0.2-0.9,0-1.4L56.6,56.2v0l20.3-35.9c0.3-0.5,0.3-1,0-1.4C76.6,18.4,76.2,18.2,75.7,18.2z"/>
	</g>
</g>
</symbol><symbol id="icon-youtube" viewBox="0 0 100 100">
<path d="M18.4,0l7.4,26.7v12.8h6.4V26.7L39.7,0h-6.5l-2.7,12.2c-0.8,3.6-1.2,6.1-1.5,7.6h-0.2c-0.3-2.1-0.8-4.6-1.5-7.6L24.9,0H18.4
	z M47.2,10.1c-2.2,0-3.9,0.4-5.3,1.3c-1.3,0.9-2.3,2.2-2.9,4.1C38.3,17.4,38,19.9,38,23v4.2c0,3.1,0.3,5.5,0.8,7.4s1.5,3.2,2.8,4.1
	c1.3,0.9,3.1,1.3,5.4,1.3c2.2,0,4-0.4,5.3-1.3c1.3-0.9,2.2-2.2,2.8-4.1s0.9-4.3,0.9-7.4V23c0-3.1-0.3-5.6-0.9-7.5
	c-0.6-1.9-1.5-3.2-2.8-4.1C51,10.5,49.3,10.1,47.2,10.1z M59.4,10.7v21.6c0,2.7,0.4,4.6,1.4,5.9c0.9,1.3,2.3,1.9,4.2,1.9
	c2.8,0,4.8-1.3,6.2-4h0.1l0.6,3.5H77V10.7h-6.5v22.9c-0.2,0.5-0.6,1-1.2,1.3c-0.5,0.3-1.1,0.5-1.6,0.5c-0.7,0-1.1-0.3-1.4-0.8
	s-0.4-1.5-0.4-2.8V10.7H59.4z M47,14.6c0.9,0,1.6,0.5,1.9,1.4c0.4,1,0.5,2.5,0.5,4.6v9c0,2.1-0.2,3.7-0.5,4.6
	c-0.4,0.9-1,1.4-1.9,1.4c-0.9,0-1.5-0.5-1.9-1.4c-0.3-0.9-0.5-2.5-0.5-4.6v-9c0-2.1,0.2-3.6,0.5-4.6C45.5,15,46.1,14.6,47,14.6z
	 M15,45C9.5,45,5,49.5,5,55v35c0,5.5,4.5,10,10,10h70c5.5,0,10-4.5,10-10V55c0-5.5-4.5-10-10-10H15z M50.2,55h5.3v12.8h0
	c0.5-0.9,1.2-1.7,2-2.2s1.8-0.8,2.8-0.8c1.3,0,2.3,0.3,3.1,1c0.7,0.7,1.3,1.8,1.6,3.3c0.3,1.5,0.5,3.7,0.5,6.4v3.9h0
	c0,3.6-0.4,6.3-1.3,8C63.4,89.1,62,90,60.2,90c-1,0-2-0.2-2.8-0.7c-0.8-0.5-1.5-1.1-1.9-2h-0.1l-0.6,2.3h-4.5V55z M17.4,56.2h16.3
	v4.4h-5.4v28.9h-5.4V60.7h-5.4V56.2z M75.5,64.8c1.9,0,3.3,0.3,4.3,1c1,0.7,1.7,1.8,2.1,3.2c0.4,1.5,0.6,3.5,0.6,6v4.2h-9.2v1.2
	c0,1.6,0,2.7,0.1,3.5c0.1,0.8,0.3,1.4,0.6,1.7c0.3,0.4,0.7,0.5,1.3,0.5c0.8,0,1.4-0.3,1.7-1c0.3-0.6,0.5-1.7,0.5-3.2l4.7,0.3
	c0,0.2,0,0.5,0,0.9c0,2.3-0.6,3.9-1.9,5c-1.2,1.1-3,1.7-5.2,1.7c-2.7,0-4.6-0.9-5.7-2.5S68,83.1,68,79.6v-4.3c0-3.7,0.6-6.3,1.7-8
	S72.8,64.8,75.5,64.8z M32.1,65.2h5.5v17.9c0,1.1,0.1,1.9,0.4,2.3c0.2,0.5,0.6,0.7,1.2,0.7c0.5,0,0.9-0.1,1.4-0.4
	c0.4-0.3,0.8-0.7,1-1.1V65.2h5.5v24.4h0h-4.3l-0.5-3H42c-1.2,2.3-2.9,3.4-5.3,3.4c-1.6,0-2.8-0.5-3.6-1.6s-1.2-2.7-1.2-5V65.2z
	 M75.4,68.5c-0.6,0-1,0.2-1.3,0.5c-0.3,0.3-0.5,0.9-0.6,1.7c-0.1,0.8-0.1,2-0.1,3.6V76h4v-1.7c0-1.6-0.1-2.7-0.2-3.6
	c-0.1-0.8-0.3-1.4-0.6-1.7S76,68.5,75.4,68.5z M58,68.6c-0.5,0-1,0.2-1.5,0.6s-0.8,1-1,1.6v13.8c0.2,0.4,0.6,0.7,0.9,1
	c0.4,0.2,0.8,0.3,1.2,0.3c0.6,0,1-0.2,1.4-0.6c0.3-0.4,0.6-1.1,0.7-2.1c0.1-1,0.2-2.4,0.2-4.2v-3.1c0-1.9-0.1-3.4-0.2-4.4
	c-0.1-1-0.3-1.8-0.6-2.2C59,68.9,58.5,68.6,58,68.6z"/>
</symbol><symbol id="icon-cogs" viewBox="0 0 100 100"><path d="M71 .1c-.6 0-1.2.5-1.3 1.1l-.6 5.1c-2.4.8-4.6 2.1-6.5 3.8l-4.7-2c-.6-.3-1.3 0-1.6.5l-4.7 8.1c-.3.6-.2 1.3.3 1.7l4 3c-.2 1.2-.4 2.5-.4 3.8 0 1.3.2 2.6.4 3.8l-4 3c-.5.4-.7 1.1-.3 1.7l4.7 8.1c.3.6 1 .8 1.6.5l4.7-2c1.9 1.6 4.1 2.9 6.5 3.8l.6 5.1c.1.6.6 1.1 1.3 1.1h9.4c.6 0 1.2-.5 1.3-1.1l.6-5.1c2.4-.8 4.6-2.1 6.5-3.8l4.7 2c.6.3 1.3 0 1.6-.5l4.7-8.1c.3-.6.2-1.3-.3-1.7l-4-3c.2-1.2.4-2.5.4-3.8 0-1.3-.2-2.6-.4-3.8l4-3c.5-.4.7-1.1.3-1.7l-4.7-8.1c-.3-.6-1-.8-1.6-.5l-4.7 2c-1.9-1.6-4.1-2.9-6.5-3.8l-.6-5.1C81.5.6 81 .1 80.3.1H71zM75.6 15c5.5 0 10 4.5 10 10s-4.5 10-10 10-10-4.5-10-10 4.5-10 10-10zM26.1 35c-.6 0-1.2.5-1.3 1.1l-.9 7.4c-4 1.1-7.7 3.2-10.6 6.1l-6.8-2.9c-.6-.3-1.3 0-1.6.5L.2 55.3c-.3.6-.2 1.3.3 1.7l6 4.4c-.5 2-.8 4-.8 6.1 0 2.1.3 4.1.8 6.1L.5 78c-.5.3-.7 1-.3 1.6l4.7 8.1c.3.6 1 .8 1.6.5l6.8-2.9c2.9 2.8 6.6 4.9 10.6 6.1l.9 7.4c.1.6.6 1.1 1.3 1.1h9.4c.6 0 1.2-.5 1.3-1.1l.9-7.4c4-1.1 7.7-3.2 10.6-6.1l6.8 2.9c.6.3 1.3 0 1.6-.5l4.7-8.1c.3-.6.2-1.3-.3-1.7l-6-4.4c.5-2 .8-4 .8-6.1 0-2.1-.3-4.1-.8-6.1l6-4.4c.5-.4.7-1.1.3-1.7l-4.7-8.1c-.3-.6-1-.8-1.6-.5l-6.8 2.9c-2.9-2.8-6.6-4.9-10.6-6.1l-.9-7.4c-.1-.6-.6-1.1-1.3-1.1l-9.4.1zm4.6 17.4c8.3 0 15 6.7 15 15s-6.7 15-15 15-15-6.7-15-15 6.8-15 15-15zm0 10c-2.8 0-5 2.2-5 5s2.2 5 5 5 5-2.2 5-5-2.2-5-5-5z"/></symbol><symbol id="icon-home" viewBox="0 0 100 100"><path d="M50,7L0,52h13.6V93h31.8V65.7h9.1V93h31.8V52H100L50,7z M50,19.3l27.3,24.5v3.7v36.4H63.6V56.6H36.4v27.3H22.7v-40L50,19.3
		z"/></symbol></svg>