<svg aria-hidden="true" style="position: absolute; width: 0; height: 0; overflow: hidden;" version="1.1" xmlns="http://www.w3.org/2000/svg" xmlns:xlink="http://www.w3.org/1999/xlink">
<!--
This is a modified svg sprite version of Alexander Pöllmann's PaymentFont

https://github.com/AlexanderPoellmann/PaymentFont


MIT License

Copyright (c) 2017 Alexander Manfred Pöllmann

Permission is hereby granted, free of charge, to any person obtaining a copy
of this software and associated documentation files (the "Software"), to deal
in the Software without restriction, including without limitation the rights
to use, copy, modify, merge, publish, distribute, sublicense, and/or sell
copies of the Software, and to permit persons to whom the Software is
furnished to do so, subject to the following conditions:

The above copyright notice and this permission notice shall be included in all
copies or substantial portions of the Software.

THE SOFTWARE IS PROVIDED "AS IS", WITHOUT WARRANTY OF ANY KIND, EXPRESS OR
IMPLIED, INCLUDING BUT NOT LIMITED TO THE WARRANTIES OF MERCHANTABILITY,
FITNESS FOR A PARTICULAR PURPOSE AND NONINFRINGEMENT. IN NO EVENT SHALL THE
AUTHORS OR COPYRIGHT HOLDERS BE LIABLE FOR ANY CLAIM, DAMAGES OR OTHER
LIABILITY, WHETHER IN AN ACTION OF CONTRACT, TORT OR OTHERWISE, ARISING FROM,
OUT OF OR IN CONNECTION WITH THE SOFTWARE OR THE USE OR OTHER DEALINGS IN THE
SOFTWARE.
-->
<defs>
<symbol id="paymentIcon-amazon" viewBox="0 0 64 32">
<path d="M9.776 16.778c-0.432 0.428-0.905 0.816-1.413 1.157l-0.034 0.022c-0.105 0.093-0.244 0.149-0.397 0.149-0.016 0-0.032-0.001-0.047-0.002l0.002 0c-0.372-0.394-0.712-0.828-1.010-1.291l-0.021-0.035c-0.846 0.815-1.997 1.319-3.266 1.326h-0.001q-2.947 0-2.947-2.947c-0.001-0.033-0.002-0.071-0.002-0.109 0-1.397 0.84-2.597 2.043-3.124l0.022-0.009q0.442-0.147 3.684-0.589v-0.295c0.010-0.076 0.016-0.163 0.016-0.252 0-0.398-0.116-0.769-0.315-1.082l0.005 0.008c-0.096-0.391-0.442-0.589-1.031-0.589-0.051-0.006-0.11-0.010-0.17-0.010-0.714 0-1.31 0.506-1.449 1.179l-0.002 0.010c0.001 0.010 0.002 0.022 0.002 0.034 0 0.145-0.118 0.263-0.263 0.263-0.012 0-0.024-0.001-0.036-0.002l0.001 0-1.922-0.147c-0.199 0-0.295-0.147-0.295-0.442q0.589-2.947 4.42-2.947c0.086-0.007 0.186-0.010 0.287-0.010 1.038 0 1.984 0.396 2.695 1.045l-0.003-0.003q0.737 0.737 0.737 3.242v3.094c0.064 0.68 0.332 1.288 0.741 1.773l-0.004-0.005c0.082 0.069 0.133 0.171 0.133 0.285 0 0.125-0.062 0.236-0.157 0.304l-0.001 0.001zM6.406 12.8q-2.947 0-2.947 2.063 0 1.326 1.179 1.326c0.631-0.013 1.177-0.363 1.469-0.876l0.004-0.009c0.194-0.515 0.306-1.11 0.306-1.732 0-0.116-0.004-0.232-0.012-0.347l0.001 0.015zM39.84 21.346c0-0.391-0.243-0.493-0.737-0.295-3.749 1.554-8.102 2.463-12.665 2.479l-0.006 0c-0.114 0.001-0.249 0.002-0.384 0.002-5.882 0-11.393-1.587-16.129-4.357l0.151 0.082-0.461-0.122q-0.442 0.147 0 0.589c4.278 3.842 9.963 6.191 16.198 6.191 0.116 0 0.232-0.001 0.348-0.002l-0.018 0q8.104 0 13.408-3.978c0.169-0.145 0.279-0.353 0.295-0.587l0-0.003zM11.691 18.104h1.922c0.017 0.003 0.036 0.004 0.055 0.004 0.216 0 0.391-0.175 0.391-0.391 0-0.019-0.001-0.039-0.004-0.057l0 0.002v-5.304q0-2.652 1.326-2.652 1.179 0 1.179 2.652v5.304c0 0.096 0.096 0.243 0.295 0.442h2.063c0.199 0 0.295-0.147 0.295-0.442v-5.304c-0.003-0.088-0.005-0.192-0.005-0.296 0-0.575 0.055-1.137 0.161-1.681l-0.009 0.055c0.222-0.436 0.665-0.732 1.178-0.737h0.001c0.047-0.008 0.101-0.012 0.155-0.012 0.524 0 0.957 0.391 1.023 0.897l0.001 0.005v7.047q0 0.147 0.442 0.442h1.922c0.199 0 0.295-0.147 0.295-0.442v-6.31q0-2.357-0.442-3.094c-0.517-0.632-1.297-1.032-2.171-1.032-0.014 0-0.028 0-0.041 0l0.002-0c-0.076-0.008-0.165-0.013-0.254-0.013-1.125 0-2.077 0.742-2.393 1.763l-0.005 0.018q-0.884-1.768-2.505-1.768c-0.044-0.003-0.094-0.004-0.146-0.004-1.151 0-2.13 0.731-2.501 1.754l-0.006 0.019v-1.179c0-0.295-0.096-0.442-0.295-0.442h-1.922c-0.199 0-0.295 0.147-0.295 0.442v9.872c-0.006 0.102 0.096 0.243 0.288 0.442zM31.884 11.057c0.010-0.076 0.016-0.163 0.016-0.252 0-0.398-0.116-0.769-0.315-1.082l0.005 0.008c-0.096-0.391-0.442-0.589-1.031-0.589-0.051-0.006-0.11-0.010-0.17-0.010-0.714 0-1.31 0.506-1.449 1.179l-0.002 0.010c0 0.096-0.096 0.243-0.295 0.442l-1.922-0.295c-0.199 0-0.295-0.147-0.295-0.442q0.589-2.947 4.42-2.947c0.058-0.003 0.126-0.005 0.194-0.005 1.010 0 1.927 0.395 2.607 1.038l-0.002-0.002q0.884 0.737 0.884 3.242v3.094c0.064 0.68 0.332 1.288 0.741 1.773l-0.004-0.005c0.089 0.069 0.145 0.175 0.145 0.295s-0.057 0.226-0.144 0.294l-0.001 0.001q-0.147 0.147-0.641 0.589c-0.239 0.218-0.505 0.413-0.792 0.578l-0.022 0.012c-0.105 0.093-0.244 0.149-0.397 0.149-0.016 0-0.032-0.001-0.047-0.002l0.002 0c-0.294-0.197-0.54-0.442-0.731-0.727l-0.006-0.009c-0.141-0.222-0.287-0.414-0.446-0.594l0.004 0.005c-0.775 0.817-1.868 1.326-3.080 1.326-0.005 0-0.010 0-0.014-0h0.001q-2.947 0-2.947-2.947c-0.002-0.043-0.003-0.094-0.003-0.146 0-1.387 0.829-2.581 2.019-3.113l0.022-0.009q0.442-0.147 3.684-0.589zM31.884 12.826q-2.947 0-2.947 2.063 0 1.326 1.179 1.326c0.004 0 0.009 0 0.014 0 0.59 0 1.096-0.361 1.309-0.875l0.003-0.009c0.287-0.502 0.456-1.103 0.456-1.744 0-0.112-0.005-0.223-0.015-0.333l0.001 0.014zM40.359 18.476c-1.329 0.007-2.574 0.363-3.649 0.98l0.036-0.019q-0.589 0.589 0.147 0.589 3.684-0.442 4.273 0.147 0.295 0.442-1.031 4.126c0.038 0.117 0.147 0.201 0.275 0.201 0.063 0 0.121-0.020 0.168-0.054l-0.001 0.001c0.925-0.765 1.602-1.8 1.913-2.984l0.009-0.040q0.589-1.992 0.147-2.434-0.154-0.583-2.287-0.512zM43.825 15.305c-0.94-0.473-2.048-0.75-3.221-0.75-0.113 0-0.226 0.003-0.337 0.008l0.016-0.001 3.242-4.715c0.221-0.238 0.377-0.539 0.44-0.873l0.002-0.011v-1.172c0-0.295-0.096-0.442-0.295-0.442h-6.336c-0.017-0.003-0.036-0.004-0.055-0.004-0.216 0-0.391 0.175-0.391 0.391 0 0.019 0.001 0.039 0.004 0.057l-0-0.002v1.326c-0.002 0.017-0.004 0.036-0.004 0.055 0 0.216 0.175 0.391 0.391 0.391 0.019 0 0.039-0.001 0.057-0.004l-0.002 0h3.242l-3.844 5.452c-0.097 0.259-0.152 0.558-0.152 0.871 0 0.057 0.002 0.113 0.005 0.168l-0-0.008v1.326c-0.002 0.017-0.004 0.036-0.004 0.055 0 0.216 0.175 0.391 0.391 0.391 0.019 0 0.039-0.001 0.057-0.004l-0.002 0c0.976-0.556 2.144-0.884 3.389-0.884s2.413 0.328 3.423 0.902l-0.034-0.018c0.017 0.003 0.036 0.004 0.055 0.004 0.216 0 0.391-0.175 0.391-0.391 0-0.019-0.001-0.039-0.004-0.057l0 0.002v-1.473c0.001-0.009 0.001-0.021 0.001-0.032 0-0.266-0.181-0.491-0.426-0.557l-0.004-0.001zM53.992 12.8c0.002 0.058 0.003 0.126 0.003 0.195 0 1.407-0.484 2.701-1.294 3.726l0.010-0.013c-0.721 0.946-1.848 1.551-3.117 1.551-0.019 0-0.038-0-0.057-0l0.003 0c-0.040 0.002-0.087 0.002-0.134 0.002-1.282 0-2.414-0.637-3.099-1.611l-0.008-0.012c-0.725-1.042-1.159-2.334-1.159-3.727 0-0.095 0.002-0.19 0.006-0.284l-0 0.013c-0.003-0.073-0.005-0.159-0.005-0.245 0-1.376 0.444-2.648 1.196-3.681l-0.012 0.018c0.708-0.947 1.827-1.553 3.087-1.553 0.054 0 0.109 0.001 0.162 0.003l-0.008-0c0.042-0.002 0.092-0.003 0.141-0.003 1.28 0 2.412 0.634 3.099 1.605l0.008 0.012c0.74 1.051 1.183 2.358 1.183 3.768 0 0.083-0.002 0.166-0.005 0.248l0-0.012zM51.045 12.8c0.004-0.103 0.007-0.225 0.007-0.347 0-0.82-0.11-1.614-0.316-2.368l0.015 0.063c-0.069-0.508-0.501-0.896-1.022-0.896-0.055 0-0.109 0.004-0.162 0.013l0.006-0.001q-1.473 0-1.473 3.094 0 3.844 1.473 3.844t1.473-3.402zM60.654 7.201q-1.768 0-2.652 1.922v-1.48c0-0.199-0.147-0.295-0.442-0.295h-1.826c-0.010-0.001-0.022-0.002-0.034-0.002-0.145 0-0.263 0.118-0.263 0.263 0 0.012 0.001 0.024 0.002 0.036l-0-0.001v10.019c0 0.096 0.096 0.243 0.295 0.442h1.922c0.017 0.003 0.036 0.004 0.055 0.004 0.216 0 0.391-0.175 0.391-0.391 0-0.019-0.001-0.039-0.004-0.057l0 0.002v-5.304c-0.006-0.086-0.009-0.186-0.009-0.287 0-0.588 0.111-1.15 0.314-1.666l-0.011 0.031c0.127-0.509 0.58-0.879 1.12-0.879 0.023 0 0.046 0.001 0.068 0.002l-0.003-0q1.179 0 1.179 2.8v5.304c0 0.096 0.096 0.243 0.295 0.442h1.922c0.017 0.003 0.036 0.004 0.055 0.004 0.216 0 0.391-0.175 0.391-0.391 0-0.019-0.001-0.039-0.004-0.057l0 0.002v-6.188q0-2.357-0.589-3.094c-0.385-0.713-1.127-1.19-1.98-1.19-0.079 0-0.157 0.004-0.233 0.012l0.010-0.001z"></path>
</symbol>









<symbol id="paymentIcon-card" viewBox="0 0 64 32">
<path d="M23.063 25.99l-13.408-1.819c-0.922-0.128-0.916-0.141-0.916-1.076 0-4.267 0-8.533 0-12.813-0.007-0.039-0.011-0.085-0.011-0.131 0-0.322 0.199-0.599 0.48-0.713l0.005-0.002q9.443-4.728 18.873-9.513c0.099-0.065 0.219-0.103 0.349-0.103 0.149 0 0.287 0.051 0.395 0.137l-0.001-0.001c3.844 2.319 7.687 4.619 11.531 6.919 0.395 0.25 0.876 0.398 1.392 0.398 0.020 0 0.039-0 0.059-0.001l-0.003 0c3.254 0 6.509 0 9.763 0 0.070-0.005 0.152-0.008 0.234-0.008 1.939 0 3.511 1.572 3.511 3.511 0 0.052-0.001 0.104-0.003 0.156l0-0.007q0.038 8.014 0 16.016c0.001 0.038 0.002 0.082 0.002 0.127 0 1.942-1.575 3.517-3.517 3.517-0.066 0-0.132-0.002-0.197-0.005l0.009 0h-24.907c-0.015 0-0.033 0-0.051 0-1.97 0-3.569-1.588-3.587-3.554v-0.002c0-0.327 0-0.653 0-1.031zM26.65 13.236c0.135 0 0.243 0 0.346 0 2.479 0 4.952 0 7.431 0 0.067-0.003 0.146-0.005 0.225-0.005 1.102 0 2.114 0.384 2.91 1.025l-0.009-0.007c0.995 0.828 1.623 2.067 1.623 3.453 0 2.471-1.998 4.475-4.467 4.484h-0.001c-2.524 0-5.048 0-7.572 0-0.391 0-0.557 0.077-0.538 0.512 0.038 0.839 0 1.685 0 2.524 0.006 0.917 0.693 1.672 1.58 1.786l0.009 0.001c0.132 0.009 0.287 0.015 0.442 0.015s0.31-0.005 0.463-0.016l-0.021 0.001c6.823 0 13.645 0 20.5 0 0.056 0.005 0.12 0.008 0.185 0.008 1.132 0 2.050-0.918 2.050-2.050 0-0.055-0.002-0.109-0.006-0.163l0 0.007c-0.058-3.972 0-7.944 0-11.916 0-1.371-0.679-2.069-2.063-2.069h-21.102c-1.409 0.013-2.191 0.948-1.98 2.409z"></path>
</symbol>










<symbol id="paymentIcon-ec" viewBox="0 0 64 32">
<path d="M37.605 22.775c0.001 0.185 0.022 0.363 0.061 0.536l-0.003-0.017c0.083 0.386 0.332 0.701 0.666 0.874l0.007 0.003c0.342 0.159 0.741 0.252 1.163 0.252 0.215 0 0.423-0.024 0.624-0.069l-0.019 0.004v-6.406h7.47v12.627h-27.713c-0.019 0-0.041 0.001-0.064 0.001-1.622 0-2.968-1.177-3.233-2.723l-0.003-0.019c-0.058-0.289-0.093-0.623-0.096-0.964l-0-0.003q0-11.666 0-23.325c-0.002-0.045-0.003-0.097-0.003-0.15 0-0.566 0.116-1.105 0.327-1.593l-0.010 0.026c0.436-1.014 1.352-1.748 2.455-1.92l0.018-0.002c0.227-0.044 0.49-0.072 0.758-0.077l0.004-0h27.547v12.037h-7.457v-5.811c-0.031-0.021-0.067-0.038-0.106-0.050l-0.003-0.001c-0.15-0.025-0.322-0.039-0.498-0.039-0.304 0-0.598 0.042-0.876 0.121l0.023-0.005c-0.607 0.166-1.046 0.713-1.046 1.362 0 0.026 0.001 0.051 0.002 0.077l-0-0.004zM26.714 19.802h3.286v-1.845h-5.913v4.83c-0 0.013-0 0.028-0 0.044 0 0.159 0.019 0.315 0.054 0.463l-0.003-0.013c0.108 0.531 0.512 0.946 1.029 1.068l0.009 0.002c0.264 0.042 0.568 0.066 0.877 0.066 0.221 0 0.44-0.012 0.655-0.036l-0.026 0.002zM25.369 6.016c-0.027-0.003-0.058-0.005-0.090-0.005s-0.063 0.002-0.093 0.006l0.004-0c-0.622 0.15-1.077 0.702-1.077 1.36 0 0.020 0 0.039 0.001 0.059l-0-0.003c0 1.409 0 2.825 0 4.235-0.002 0.033-0.003 0.071-0.003 0.109s0.001 0.076 0.004 0.114l-0-0.005h2.563v-5.868z"></path>
</symbol>
























<symbol id="paymentIcon-mastercard" viewBox="0 0 64 32">
<path d="M25.779 28.54l-0.333-0.045c-0.308-0.038-0.551-0.102-0.551-0.32s0.231-0.384 0.641-0.384c0.374 0.007 0.722 0.111 1.022 0.287l-0.010-0.005 0.308-0.57c-0.355-0.214-0.784-0.341-1.242-0.341-0.029 0-0.059 0.001-0.088 0.002l0.004-0c-0.826 0-1.352 0.397-1.352 1.044 0 0.532 0.397 0.858 1.121 0.961l0.333 0.045c0.391 0.051 0.57 0.154 0.57 0.34s-0.256 0.397-0.743 0.397c-0.022 0.001-0.047 0.002-0.073 0.002-0.393 0-0.755-0.131-1.046-0.351l0.004 0.003-0.333 0.551c0.375 0.265 0.841 0.424 1.344 0.424 0.023 0 0.046-0 0.068-0.001l-0.003 0c0.942 0 1.486-0.442 1.486-1.063s-0.416-0.858-1.128-0.974zM29.238 29.905c-0.352 0-0.468-0.218-0.468-0.545v-1.473h1.16v-0.641h-1.16v-0.993h-0.718v0.987h-0.641v0.641h0.641v1.486c0 0.756 0.295 1.204 1.128 1.204 0.002 0 0.004 0 0.007 0 0.325 0 0.628-0.093 0.884-0.254l-0.007 0.004-0.205-0.609c-0.177 0.112-0.39 0.182-0.619 0.192l-0.003 0zM18.066 27.163c-0.021-0.001-0.045-0.002-0.069-0.002-0.446 0-0.839 0.228-1.068 0.574l-0.003 0.005c-0.214-0.349-0.593-0.578-1.025-0.578-0.018 0-0.036 0-0.054 0.001l0.003-0c-0.017-0.001-0.037-0.002-0.057-0.002-0.373 0-0.702 0.19-0.895 0.478l-0.002 0.004v-0.404h-0.705v3.254h0.717v-1.8c-0.005-0.031-0.007-0.067-0.007-0.104 0-0.421 0.341-0.762 0.762-0.762 0.014 0 0.027 0 0.041 0.001l-0.002-0c0.468 0 0.711 0.308 0.711 0.858v1.813h0.718v-1.807c-0.004-0.029-0.006-0.063-0.006-0.097 0-0.425 0.344-0.769 0.769-0.769 0.016 0 0.031 0 0.047 0.001l-0.002-0c0.48 0 0.718 0.308 0.718 0.858v1.813h0.692v-2.044c0.002-0.026 0.003-0.055 0.003-0.086 0-0.669-0.542-1.211-1.211-1.211-0.026 0-0.052 0.001-0.077 0.002l0.003-0zM22.627 27.637c-0.228-0.29-0.58-0.475-0.974-0.475-0.018 0-0.036 0-0.053 0.001l0.003-0c-0.899 0.057-1.606 0.799-1.606 1.707s0.707 1.651 1.601 1.707l0.005 0c0.015 0.001 0.033 0.001 0.051 0.001 0.394 0 0.746-0.185 0.972-0.472l0.002-0.003v0.397h0.711v-3.261h-0.711zM21.692 29.937c-0.019 0.001-0.041 0.002-0.064 0.002-0.577 0-1.044-0.468-1.044-1.044s0.468-1.044 1.044-1.044c0.576 0 1.043 0.466 1.044 1.042v0c0.002 0.021 0.003 0.046 0.003 0.070 0 0.538-0.436 0.974-0.974 0.974-0.003 0-0.006 0-0.009-0h0zM44.94 27.637v-0.397h-0.698v3.254h0.705v-1.839c0-0.538 0.231-0.839 0.692-0.839 0.003-0 0.008-0 0.012-0 0.155 0 0.303 0.031 0.438 0.086l-0.008-0.003 0.218-0.641c-0.151-0.056-0.324-0.089-0.506-0.090h-0c-0.008-0-0.018-0-0.027-0-0.349 0-0.654 0.186-0.822 0.464l-0.002 0.004zM32.127 27.163c-0.888 0.068-1.583 0.806-1.583 1.706 0 0.918 0.723 1.667 1.631 1.709l0.004 0c0.020 0.001 0.044 0.001 0.069 0.001 0.482 0 0.924-0.172 1.267-0.459l-0.003 0.003-0.346-0.525c-0.258 0.207-0.588 0.335-0.947 0.34h-0.001c-0.023 0.002-0.050 0.003-0.077 0.003-0.462 0-0.842-0.346-0.897-0.793l-0-0.004h2.415c0-0.090 0-0.179 0-0.275 0.004-0.042 0.006-0.091 0.006-0.141 0-0.854-0.685-1.548-1.536-1.563l-0.001-0zM31.25 28.585c0.028-0.441 0.392-0.788 0.838-0.788 0.010 0 0.019 0 0.029 0l-0.001-0c0.006-0 0.013-0 0.019-0 0.439 0 0.796 0.351 0.807 0.787l0 0.001zM42.595 27.637c-0.228-0.29-0.58-0.475-0.974-0.475-0.018 0-0.036 0-0.053 0.001l0.003-0c-0.899 0.057-1.606 0.799-1.606 1.707s0.707 1.651 1.601 1.707l0.005 0c0.015 0.001 0.033 0.001 0.051 0.001 0.394 0 0.746-0.185 0.972-0.472l0.002-0.003v0.397h0.705v-3.261h-0.705zM41.641 29.937c-0.019 0.001-0.041 0.002-0.064 0.002-0.577 0-1.044-0.468-1.044-1.044s0.468-1.044 1.044-1.044c0.576 0 1.043 0.466 1.044 1.042v0c0.002 0.021 0.003 0.046 0.003 0.070 0 0.538-0.436 0.974-0.974 0.974-0.003 0-0.006 0-0.009-0h0zM49.168 27.637c-0.228-0.29-0.58-0.475-0.974-0.475-0.018 0-0.036 0-0.053 0.001l0.003-0c-0.899 0.057-1.606 0.799-1.606 1.707s0.707 1.651 1.601 1.707l0.005 0c0.015 0.001 0.033 0.001 0.051 0.001 0.394 0 0.746-0.185 0.972-0.472l0.002-0.003v0.397h0.711v-4.568h-0.711zM48.226 29.937c-0.019 0.001-0.041 0.002-0.064 0.002-0.577 0-1.044-0.468-1.044-1.044s0.468-1.044 1.044-1.044c0.576 0 1.043 0.466 1.044 1.042v0c0.002 0.021 0.003 0.046 0.003 0.070 0 0.538-0.436 0.974-0.974 0.974-0.003 0-0.006 0-0.009-0h0zM35.106 27.637v-0.397h-0.705v3.254h0.705v-1.839c0-0.538 0.231-0.839 0.692-0.839 0.003-0 0.008-0 0.012-0 0.155 0 0.303 0.031 0.438 0.086l-0.008-0.003 0.218-0.641c-0.151-0.056-0.324-0.089-0.506-0.090h-0c-0.006-0-0.014-0-0.021-0-0.349 0-0.654 0.186-0.822 0.464l-0.002 0.004zM38.393 27.829c0.322 0.004 0.618 0.114 0.855 0.297l-0.003-0.002 0.34-0.57c-0.293-0.244-0.673-0.392-1.087-0.392-0.021 0-0.042 0-0.063 0.001l0.003-0c-0.031-0.002-0.068-0.003-0.105-0.003-0.945 0-1.71 0.766-1.71 1.71s0.766 1.71 1.71 1.71c0.037 0 0.073-0.001 0.11-0.003l-0.005 0c0.025 0.001 0.054 0.002 0.084 0.002 0.415 0 0.795-0.148 1.091-0.395l-0.003 0.002-0.34-0.57c-0.234 0.181-0.53 0.291-0.851 0.295h-0.001c-0.54-0.044-0.962-0.493-0.962-1.041s0.422-0.997 0.959-1.041l0.004-0zM24.459 24.331c0.011 0 0.023 0 0.036 0 2.857 0 5.485-0.985 7.562-2.633l-0.025 0.019c2.063 1.633 4.703 2.62 7.573 2.62 6.768 0 12.255-5.487 12.255-12.255s-5.487-12.255-12.255-12.255c-2.87 0-5.51 0.987-7.599 2.64l0.026-0.020c-2.064-1.637-4.707-2.627-7.581-2.627-6.768 0-12.255 5.487-12.255 12.255s5.487 12.255 12.255 12.255c0.003 0 0.007 0 0.010 0h-0z"></path>
</symbol>





<symbol id="paymentIcon-paypal" viewBox="0 0 64 32">
<path d="M35.292 11.275h-2.402c-0.236 0-0.444 0.118-0.569 0.299l-0.002 0.002-3.312 4.907-1.397-4.715c-0.086-0.281-0.338-0.483-0.639-0.493l-0.001-0h-2.383c-0.229 0.002-0.413 0.188-0.413 0.416 0 0.048 0.008 0.094 0.023 0.137l-0.001-0.003 2.639 7.752-2.492 3.504c-0.041 0.063-0.066 0.141-0.066 0.224 0 0.226 0.18 0.41 0.405 0.416h2.397c0.001 0 0.002 0 0.004 0 0.233 0 0.44-0.116 0.565-0.293l0.001-0.002 7.976-11.531c0.041-0.063 0.066-0.141 0.066-0.224 0-0.226-0.18-0.41-0.405-0.416h-0.001zM19.27 15.901c-0.191 1.297-1.296 2.281-2.632 2.281-0.021 0-0.041-0-0.062-0.001l0.003 0c-0.055 0.006-0.119 0.009-0.184 0.009-1.023 0-1.851-0.829-1.851-1.851 0-0.17 0.023-0.334 0.066-0.49l-0.003 0.013c0.192-1.304 1.302-2.294 2.645-2.294 0.009 0 0.019 0 0.028 0h-0.001c0.034-0.002 0.074-0.003 0.114-0.003 0.582 0 1.107 0.247 1.474 0.643l0.001 0.001c0.277 0.347 0.444 0.793 0.444 1.277 0 0.144-0.015 0.285-0.043 0.421l0.002-0.013zM22.595 11.25h-2.402c-0.207 0.001-0.378 0.152-0.41 0.35l-0 0.002-0.102 0.641-0.167-0.243c-0.519-0.75-1.672-0.999-2.819-0.999-2.751 0.064-4.998 2.144-5.321 4.817l-0.003 0.026c-0.054 0.262-0.085 0.563-0.085 0.871 0 1.060 0.368 2.034 0.983 2.802l-0.007-0.009c0.685 0.75 1.668 1.219 2.76 1.219 0.086 0 0.171-0.003 0.256-0.009l-0.011 0.001c0.020 0 0.044 0 0.068 0 1.268 0 2.416-0.517 3.244-1.352l0-0-0.109 0.641c-0.003 0.019-0.005 0.041-0.005 0.064 0 0.229 0.186 0.416 0.415 0.416h2.146c0.001 0 0.001 0 0.002 0 0.344 0 0.629-0.251 0.683-0.579l0.001-0.004 1.281-8.168c0.003-0.019 0.005-0.041 0.005-0.064 0-0.229-0.186-0.416-0.415-0.416h-0zM8.264 11.359c-0.275 1.787-1.64 1.787-2.96 1.787h-0.756l0.525-3.338c0.023-0.21 0.2-0.372 0.414-0.372 0.001 0 0.002 0 0.003 0h0.346c0.897 0 1.749 0 2.185 0.512 0.191 0.267 0.305 0.601 0.305 0.961 0 0.16-0.023 0.314-0.064 0.46l0.003-0.012zM7.688 6.669h-4.984c-0.001 0-0.001 0-0.002 0-0.344 0-0.629 0.251-0.683 0.579l-0.001 0.004-2.018 12.774c-0.003 0.019-0.005 0.041-0.005 0.064 0 0.229 0.186 0.416 0.415 0.416h2.383c0.001 0 0.001 0 0.002 0 0.344 0 0.629-0.251 0.683-0.579l0.001-0.004 0.545-3.44c0.054-0.332 0.34-0.583 0.683-0.583 0.001 0 0.002 0 0.002 0h1.576c3.28 0 5.176-1.589 5.67-4.734 0.071-0.276 0.111-0.593 0.111-0.919 0-0.86-0.282-1.654-0.759-2.294l0.007 0.010c-0.711-0.833-1.967-1.281-3.632-1.281zM60.936 7.015l-2.044 13.011c-0.003 0.019-0.005 0.041-0.005 0.064 0 0.229 0.186 0.416 0.415 0.416h2.056c0.001 0 0.001 0 0.002 0 0.344 0 0.629-0.251 0.683-0.579l0.001-0.004 2.018-12.774c0.003-0.019 0.005-0.041 0.005-0.064 0-0.229-0.186-0.416-0.415-0.416h-2.306c-0.207 0.001-0.378 0.152-0.41 0.35l-0 0.002zM54.799 15.926c-0.191 1.297-1.297 2.281-2.632 2.281-0.021 0-0.041-0-0.062-0.001l0.003 0c-0.055 0.006-0.119 0.009-0.184 0.009-1.023 0-1.851-0.829-1.851-1.851 0-0.17 0.023-0.334 0.066-0.49l-0.003 0.013c0.192-1.304 1.302-2.294 2.645-2.294 0.009 0 0.019 0 0.028 0h-0.001c0.034-0.002 0.074-0.003 0.114-0.003 0.582 0 1.107 0.247 1.474 0.643l0.001 0.001c0.277 0.347 0.444 0.793 0.444 1.277 0 0.144-0.015 0.285-0.043 0.421l0.002-0.013zM58.124 11.275h-2.39c-0.207 0.001-0.378 0.152-0.41 0.35l-0 0.002-0.102 0.641-0.167-0.243c-0.519-0.75-1.666-0.999-2.819-0.999-2.746 0.059-4.992 2.127-5.327 4.791l-0.003 0.027c-0.054 0.262-0.086 0.563-0.086 0.871 0 1.060 0.368 2.034 0.983 2.802l-0.007-0.009c0.685 0.75 1.668 1.219 2.76 1.219 0.086 0 0.171-0.003 0.256-0.009l-0.011 0.001c0.015 0 0.032 0 0.049 0 1.275 0 2.427-0.522 3.256-1.364l0.001-0.001-0.109 0.641c-0.003 0.019-0.005 0.041-0.005 0.064 0 0.229 0.186 0.416 0.415 0.416h2.146c0.001 0 0.001 0 0.002 0 0.344 0 0.629-0.251 0.683-0.579l0.001-0.004 1.281-8.168c0.003-0.019 0.005-0.041 0.005-0.064 0-0.229-0.186-0.416-0.415-0.416h-0zM43.806 11.359c-0.275 1.787-1.64 1.787-2.96 1.787h-0.756l0.525-3.338c0.022-0.2 0.183-0.357 0.383-0.371l0.001-0h0.346c0.897 0 1.749 0 2.185 0.512 0.205 0.274 0.328 0.619 0.328 0.993 0 0.148-0.019 0.291-0.056 0.428l0.003-0.012zM43.229 6.695h-4.984c-0.001 0-0.001 0-0.002 0-0.344 0-0.629 0.251-0.683 0.579l-0.001 0.004-2.012 12.748c-0.003 0.019-0.005 0.041-0.005 0.064 0 0.229 0.186 0.416 0.415 0.416h2.563c0.242-0 0.442-0.176 0.48-0.407l0-0.003 0.564-3.613c0.054-0.332 0.34-0.583 0.683-0.583 0.001 0 0.002 0 0.002 0h1.576c3.28 0 5.176-1.589 5.67-4.734 0.071-0.276 0.111-0.593 0.111-0.919 0-0.86-0.282-1.654-0.759-2.294l0.007 0.010c-0.711-0.833-1.967-1.281-3.632-1.281z"></path>
</symbol>




<symbol id="paymentIcon-rechnung" viewBox="0 0 64 32">
<path d="M58.982 10.353l-6.246-6.246c-0.16-0.146-0.334-0.289-0.514-0.423l-0.018-0.013v7.213h7.207c-0.145-0.199-0.286-0.372-0.435-0.538l0.005 0.006zM9.75 18.233h-0.346l-0.391 2.268h0.359c0.027 0.002 0.058 0.003 0.090 0.003 0.331 0 0.632-0.125 0.859-0.331l-0.001 0.001c0.213-0.235 0.344-0.549 0.344-0.893 0-0.037-0.002-0.074-0.005-0.111l0 0.005c0.002-0.023 0.003-0.051 0.003-0.078 0-0.238-0.083-0.457-0.222-0.629l0.001 0.002c-0.161-0.149-0.378-0.24-0.616-0.24-0.027 0-0.053 0.001-0.079 0.003l0.003-0zM52.211 13.037c-0.006 0-0.012 0-0.019 0-0.581 0-1.097-0.28-1.419-0.713l-0.003-0.005c-0.434-0.336-0.712-0.856-0.717-1.441v-8.649h-43.293c-0.99 0.027-1.875 0.46-2.496 1.138l-0.002 0.003c-0.652 0.58-1.060 1.421-1.060 2.358 0 0.052 0.001 0.103 0.004 0.154l-0-0.007v18.898c-0.002 0.044-0.004 0.097-0.004 0.149 0 0.933 0.406 1.771 1.051 2.347l0.003 0.003c0.586 0.561 1.383 0.906 2.26 0.906 0.084 0 0.167-0.003 0.249-0.009l-0.011 0.001h50.545c0.071 0.005 0.153 0.008 0.236 0.008 0.878 0 1.675-0.345 2.264-0.907l-0.001 0.001c0.655-0.58 1.066-1.424 1.066-2.363 0-0.048-0.001-0.095-0.003-0.142l0 0.007v-11.736zM11.852 25.177h-1.537l-0.961-3.203h-0.551l-0.551 3.203h-1.441l1.435-8.399h1.666c0.051-0.004 0.11-0.007 0.17-0.007 0.575 0 1.097 0.225 1.484 0.591l-0.001-0.001c0.347 0.416 0.557 0.956 0.557 1.545 0 0.060-0.002 0.12-0.007 0.18l0-0.008c0.001 0.026 0.001 0.057 0.001 0.087 0 0.542-0.143 1.051-0.393 1.491l0.008-0.015c-0.261 0.434-0.646 0.769-1.106 0.962l-0.015 0.006zM17.617 18.233h-2.434l-0.307 1.845h2.21l-0.256 1.461h-2.21l-0.372 2.165h2.37l-0.25 1.473h-3.78l1.435-8.399h3.786zM19.872 23.358c0.21 0.287 0.545 0.471 0.923 0.471 0.031 0 0.062-0.001 0.093-0.004l-0.004 0c0.571-0.042 1.095-0.21 1.555-0.477l-0.017 0.009v1.493c-0.54 0.274-1.176 0.436-1.849 0.442h-0.002c-0.031 0.002-0.067 0.003-0.104 0.003-0.704 0-1.329-0.336-1.724-0.856l-0.004-0.005c-0.407-0.611-0.649-1.363-0.649-2.171 0-0.093 0.003-0.185 0.009-0.276l-0.001 0.012c-0-0.026-0-0.057-0-0.088 0-0.964 0.176-1.887 0.499-2.739l-0.018 0.053c0.265-0.766 0.706-1.413 1.276-1.918l0.005-0.004c0.487-0.399 1.116-0.641 1.801-0.641 0.018 0 0.035 0 0.053 0l-0.003-0c0.018-0 0.039-0 0.061-0 0.345 0 0.68 0.047 0.997 0.135l-0.026-0.006c0.366 0.117 0.685 0.278 0.972 0.481l-0.011-0.007-0.545 1.435c-0.235-0.174-0.503-0.325-0.79-0.44l-0.024-0.009c-0.191-0.069-0.411-0.109-0.64-0.109h-0c-0.432 0.003-0.821 0.181-1.102 0.467l-0 0c-0.36 0.374-0.633 0.835-0.782 1.348l-0.006 0.023c-0.187 0.565-0.295 1.215-0.295 1.89 0 0.011 0 0.022 0 0.033v-0.002c-0.006 0.065-0.009 0.141-0.009 0.218 0 0.443 0.113 0.86 0.311 1.224l-0.007-0.013zM28.61 25.203h-1.48l0.641-3.626h-2.204l-0.641 3.626h-1.39l1.448-8.424h1.416l-0.564 3.293h2.185l0.564-3.293h1.397zM35.773 25.203h-1.646l-1.646-6.381v0.186q-0.147 1.243-0.307 2.217l-0.641 3.953h-1.281l1.435-8.399h1.653l1.576 6.188q0.058-0.436 0.179-1.249t0.782-4.939h1.281zM42.871 22.236c-0.108 0.891-0.472 1.681-1.017 2.312l0.005-0.006c-0.466 0.479-1.117 0.777-1.838 0.777-0.030 0-0.059-0-0.089-0.002l0.004 0c-0.032 0.002-0.070 0.003-0.109 0.003-0.57 0-1.082-0.248-1.434-0.642l-0.002-0.002c-0.399-0.456-0.642-1.057-0.642-1.715 0-0.025 0-0.051 0.001-0.076l-0 0.004c-0.002-0.048-0.003-0.104-0.003-0.161 0-0.228 0.017-0.452 0.051-0.671l-0.003 0.024 0.91-5.304h1.416l-0.897 5.279c-0.044 0.213-0.072 0.461-0.077 0.714l-0 0.004q0 1.025 0.878 1.025c0.010 0 0.022 0.001 0.033 0.001 0.356 0 0.672-0.173 0.868-0.44l0.002-0.003c0.245-0.364 0.416-0.798 0.479-1.266l0.002-0.015 0.897-5.272h1.416zM49.495 25.203h-1.646l-1.653-6.355v0.186q-0.147 1.243-0.307 2.217l-0.641 3.953h-1.281l1.435-8.399h1.653l1.576 6.188q0.058-0.436 0.179-1.249t0.833-4.939h1.281zM53.172 23.338c0.22 0.284 0.561 0.464 0.944 0.464 0.031 0 0.061-0.001 0.091-0.003l-0.004 0c0.284-0.007 0.554-0.058 0.806-0.147l-0.019 0.006 0.307-1.717h-1.243l0.263-1.48h2.607l-0.756 4.35c-0.331 0.15-0.717 0.274-1.119 0.353l-0.034 0.006c-0.332 0.061-0.715 0.096-1.106 0.096-0.005 0-0.011 0-0.016-0h0.001c-0.034 0.002-0.074 0.003-0.114 0.003-0.704 0-1.331-0.33-1.734-0.844l-0.004-0.005c-0.407-0.606-0.65-1.352-0.65-2.155 0-0.096 0.003-0.192 0.010-0.286l-0.001 0.013c-0-0.030-0.001-0.066-0.001-0.101 0-0.954 0.179-1.866 0.505-2.704l-0.017 0.051c0.29-0.778 0.771-1.428 1.387-1.915l0.009-0.007c0.555-0.42 1.257-0.673 2.019-0.673 0.020 0 0.040 0 0.060 0.001l-0.003-0c0.005-0 0.011-0 0.017-0 0.709 0 1.368 0.213 1.917 0.578l-0.013-0.008-0.532 1.441c-0.197-0.135-0.423-0.257-0.661-0.356l-0.025-0.009c-0.217-0.089-0.469-0.141-0.734-0.141-0.003 0-0.007 0-0.010 0h0.001c-0.005-0-0.011-0-0.017-0-0.485 0-0.928 0.18-1.266 0.476l0.002-0.002c-0.395 0.363-0.696 0.823-0.865 1.342l-0.006 0.022c-0.203 0.554-0.321 1.194-0.321 1.862 0 0.021 0 0.042 0 0.063l-0-0.003c-0.005 0.058-0.008 0.125-0.008 0.193 0 0.454 0.122 0.881 0.334 1.247l-0.006-0.012z"></path>
</symbol>












<symbol id="paymentIcon-visa" viewBox="0 0 64 32">
<path d="M25.913 5.76h5.080l-3.178 18.649h-5.087l3.184-18.649zM46.272 6.362c-1.318-0.487-2.84-0.769-4.428-0.769-0.045 0-0.089 0-0.134 0.001l0.007-0c-5.023 0-8.559 2.53-8.591 6.156 0 2.678 2.524 4.177 4.484 5.067s2.646 1.499 2.633 2.313c0 1.281-1.582 1.819-3.043 1.819-0.093 0.003-0.202 0.005-0.312 0.005-1.623 0-3.162-0.363-4.538-1.012l0.065 0.028-0.641-0.295-0.711 4.177c1.63 0.609 3.513 0.962 5.479 0.962 0.049 0 0.098-0 0.146-0.001l-0.007 0c5.343 0 8.809-2.498 8.853-6.374 0-2.12-1.333-3.735-4.267-5.067-1.775-0.865-2.864-1.441-2.851-2.313 0-0.775 0.922-1.602 2.908-1.602 0.060-0.001 0.131-0.002 0.202-0.002 1.3 0 2.539 0.265 3.664 0.743l-0.061-0.023 0.455 0.218 0.692-4.042zM59.309 5.92h-3.927c-1.217 0-2.127 0.333-2.659 1.544l-7.553 17.092h5.336s0.871-2.306 1.070-2.8h6.509c0.154 0.641 0.641 2.793 0.641 2.793h4.696l-4.113-18.629zM53.037 17.938c0.423-1.070 2.056-5.208 2.056-5.208s0.416-1.083 0.673-1.781l0.346 1.608 1.179 5.388h-4.254zM18.495 5.913l-4.978 12.716-0.532-2.563c-0.929-2.979-3.844-6.208-7.047-7.822l4.548 16.31h5.375l8.014-18.642h-5.381zM8.905 5.907h-8.2l-0.064 0.391c6.406 1.544 10.596 5.272 12.345 9.757l-1.781-8.578c-0.307-1.179-1.198-1.531-2.306-1.576zM6.15 8.931c-0.062-0.378-0.304-0.688-0.634-0.843l-0.007-0.003 1.537 0.711z"></path>
</symbol>











































<symbol id="paymentIcon-amazon-pay" viewBox="0 0 64 32">
<path d="M63.23 10.718h-0.833c-0.005-0-0.012-0.001-0.018-0.001-0.126 0-0.234 0.079-0.276 0.191l-0.001 0.002c0 0.058-0.051 0.122-0.070 0.179l-1.281 3.671-0.468 1.345-0.064-0.128-1.409-3.895-0.423-1.153c-0.044-0.136-0.17-0.232-0.318-0.232-0.012 0-0.024 0.001-0.036 0.002l0.001-0h-0.788c-0.141 0-0.205 0.077-0.167 0.218 0.021 0.088 0.045 0.163 0.074 0.235l-0.004-0.011q1.204 2.966 2.409 5.932c0.039 0.081 0.062 0.175 0.062 0.275s-0.023 0.195-0.064 0.279l0.002-0.004c-0.135 0.288-0.237 0.596-0.372 0.884-0.12 0.286-0.373 0.495-0.68 0.55l-0.005 0.001c-0.083 0.007-0.179 0.011-0.275 0.011s-0.193-0.004-0.288-0.012l0.012 0.001c-0.102 0-0.205 0-0.307-0.038s-0.224 0.045-0.231 0.199 0 0.269 0 0.41c-0.001 0.012-0.002 0.025-0.002 0.039 0 0.174 0.137 0.317 0.309 0.326l0.001 0c0.206 0.053 0.443 0.083 0.688 0.083 0.094 0 0.187-0.004 0.279-0.013l-0.012 0.001c0.486-0.037 0.91-0.278 1.189-0.637l0.003-0.004c0.216-0.274 0.398-0.589 0.53-0.93l0.008-0.025 2.915-7.412c0.024-0.060 0.044-0.131 0.057-0.205l0.001-0.007c-0.007-0.072-0.067-0.128-0.14-0.128-0.002 0-0.005 0-0.007 0h0zM49.559 11.929c-0.292-0.652-0.851-1.139-1.534-1.329l-0.017-0.004c-0.232-0.065-0.498-0.103-0.774-0.103-0.527 0-1.022 0.138-1.451 0.38l0.015-0.008c-0.256 0.135-0.493 0.314-0.743 0.474v-0.064c0-0.128-0.038-0.25-0.064-0.378-0.019-0.113-0.117-0.199-0.234-0.199-0.001 0-0.002 0-0.003 0h-0.64c-0.002-0-0.004-0-0.006-0-0.113 0-0.205 0.092-0.205 0.205 0 0 0 0 0 0v0c0 0.051 0 0.096 0 0.147q0 4.273 0 8.54s0 0.058 0 0.090c0 0.186 0.077 0.263 0.263 0.263h0.679c0.186 0 0.256-0.077 0.263-0.263 0-0.032 0-0.064 0-0.096v-2.928l0.058 0.038c0.507 0.447 1.177 0.72 1.911 0.72 0.042 0 0.084-0.001 0.126-0.003l-0.006 0c0.697-0.001 1.328-0.288 1.781-0.749l0-0c0.391-0.392 0.679-0.886 0.822-1.439l0.005-0.022c0.101-0.388 0.16-0.832 0.16-1.291 0-0.182-0.009-0.361-0.027-0.538l0.002 0.022c-0.035-0.539-0.171-1.039-0.388-1.491l0.011 0.024zM48.515 15.132c-0.080 0.274-0.209 0.512-0.38 0.714l0.002-0.003c-0.262 0.299-0.638 0.493-1.060 0.512l-0.003 0c-0.057 0.004-0.124 0.007-0.191 0.007-0.642 0-1.232-0.222-1.698-0.594l0.005 0.004c-0.028-0.028-0.045-0.066-0.045-0.109 0-0 0-0 0-0v0c0-0.577 0-1.16 0-1.736s0-1.147 0-1.723c-0-0.004-0.001-0.008-0.001-0.012 0-0.052 0.028-0.098 0.070-0.122l0.001-0c0.469-0.341 1.056-0.545 1.691-0.545 0.020 0 0.041 0 0.061 0.001l-0.003-0c0.012-0 0.027-0.001 0.042-0.001 0.679 0 1.253 0.445 1.448 1.060l0.003 0.011c0.104 0.288 0.171 0.621 0.186 0.967l0 0.007c0.010 0.115 0.016 0.249 0.016 0.385 0 0.41-0.053 0.807-0.151 1.185l0.007-0.033zM56.164 11.999c-0.067-0.498-0.359-0.916-0.768-1.155l-0.007-0.004c-0.325-0.177-0.708-0.288-1.115-0.307l-0.006-0c-0.145-0.012-0.313-0.019-0.484-0.019-0.538 0-1.060 0.068-1.559 0.195l0.044-0.009c-0.307 0.083-0.554 0.167-0.795 0.262l0.052-0.018c-0.12 0.037-0.205 0.146-0.205 0.276 0 0.004 0 0.009 0 0.013l-0-0.001c0 0.147 0 0.301 0 0.448s0.096 0.243 0.269 0.186c0.504-0.168 1.087-0.282 1.691-0.319l0.020-0.001c0.081-0.007 0.175-0.011 0.27-0.011 0.238 0 0.47 0.025 0.694 0.072l-0.022-0.004c0.383 0.067 0.677 0.374 0.724 0.758l0 0.004c0.030 0.267 0.048 0.575 0.048 0.888 0 0.138-0.003 0.276-0.010 0.412l0.001-0.019h-0.051c-0.372-0.096-0.81-0.167-1.258-0.197l-0.023-0.001c-0.096-0.009-0.208-0.014-0.32-0.014-0.387 0-0.759 0.062-1.108 0.175l0.025-0.007c-0.536 0.166-0.966 0.537-1.206 1.020l-0.005 0.012c-0.121 0.259-0.192 0.562-0.192 0.881 0 0.141 0.014 0.28 0.040 0.413l-0.002-0.013c0.078 0.596 0.457 1.090 0.976 1.328l0.011 0.004c0.287 0.129 0.623 0.204 0.975 0.204 0.163 0 0.321-0.016 0.475-0.046l-0.015 0.003c0.632-0.105 1.19-0.371 1.645-0.754l-0.005 0.004 0.070-0.051c0 0.16 0.045 0.308 0.070 0.455 0.007 0.116 0.101 0.208 0.218 0.211h0q0.34 0 0.679 0c0.105-0.003 0.189-0.087 0.192-0.192v-0c0-0.038 0-0.077 0-0.115 0-1.448 0-2.896 0-4.35 0.001-0.035 0.002-0.076 0.002-0.117 0-0.176-0.012-0.348-0.036-0.518l0.002 0.019zM54.94 15.843c-0.425 0.32-0.945 0.536-1.51 0.601l-0.014 0.001c-0.061 0.009-0.13 0.014-0.202 0.014-0.176 0-0.344-0.031-0.501-0.088l0.010 0.003c-0.251-0.093-0.441-0.297-0.511-0.552l-0.001-0.006c-0.037-0.117-0.058-0.251-0.058-0.391s0.021-0.274 0.061-0.4l-0.003 0.010c0.1-0.317 0.354-0.559 0.672-0.639l0.007-0.001c0.196-0.058 0.422-0.092 0.655-0.092 0.094 0 0.187 0.005 0.279 0.016l-0.011-0.001c0.365 0.032 0.73 0.096 1.095 0.147h0.077v0.346c0 0.301 0 0.596 0 0.897 0.002 0.008 0.003 0.017 0.003 0.027 0 0.044-0.021 0.083-0.054 0.107l-0 0zM8.879 17.515c0.010 0.002 0.022 0.002 0.034 0.002 0.138 0 0.25-0.112 0.25-0.25 0-0.012-0.001-0.024-0.003-0.036l0 0.001v-3.37q0-1.685 0.839-1.685t0.75 1.685v3.37c0 0.064 0.064 0.154 0.186 0.282h1.281c0.122 0 0.186-0.096 0.186-0.282v-3.37c-0.002-0.052-0.003-0.113-0.003-0.174 0-0.369 0.036-0.729 0.105-1.078l-0.006 0.035c0.141-0.277 0.423-0.465 0.749-0.468h0c0.034-0.006 0.073-0.010 0.112-0.010 0.33 0 0.602 0.25 0.637 0.571l0 0.003v4.484q0 0.096 0.282 0.282h1.217c0.122 0 0.186-0.096 0.186-0.282v-4.017c0.010-0.111 0.015-0.239 0.015-0.37 0-0.574-0.109-1.123-0.308-1.627l0.010 0.030c-0.328-0.393-0.818-0.641-1.365-0.641-0.013 0-0.026 0-0.040 0l0.002-0c-0.049-0.005-0.106-0.008-0.164-0.008-0.714 0-1.317 0.471-1.518 1.118l-0.003 0.011c-0.253-0.649-0.865-1.104-1.587-1.121l-0.002-0c-0.029-0.002-0.062-0.003-0.096-0.003-0.729 0-1.351 0.464-1.585 1.112l-0.004 0.012v-0.762c0-0.186-0.064-0.282-0.186-0.282h-1.166c-0.128 0-0.186 0.096-0.186 0.282v6.272c0 0.064 0.064 0.154 0.186 0.282zM18.143 13.582c-0.762 0.346-1.283 1.101-1.283 1.977 0 0.028 0.001 0.056 0.002 0.083l-0-0.004c-0.011 0.070-0.017 0.152-0.017 0.235 0 0.913 0.74 1.653 1.653 1.653 0.083 0 0.164-0.006 0.244-0.018l-0.009 0.001c0.004 0 0.009 0 0.014 0 0.768 0 1.461-0.322 1.951-0.838l0.001-0.001c0.099 0.111 0.192 0.232 0.275 0.36l0.007 0.011c0.125 0.187 0.281 0.343 0.462 0.464l0.006 0.004c0.009 0.001 0.019 0.001 0.029 0.001 0.097 0 0.186-0.037 0.253-0.098l-0 0c0.194-0.111 0.362-0.234 0.515-0.374l-0.002 0.002q0.327-0.282 0.423-0.372c0.055-0.044 0.090-0.111 0.090-0.186s-0.035-0.142-0.089-0.185l-0-0c-0.263-0.295-0.443-0.671-0.499-1.085l-0.001-0.011v-1.992q0-1.589-0.564-2.056c-0.429-0.399-1.006-0.645-1.64-0.645-0.050 0-0.099 0.002-0.147 0.004l0.007-0q-2.434 0-2.806 1.871c0 0.186 0.064 0.282 0.186 0.282l1.217 0.186c0.122-0.122 0.186-0.218 0.186-0.282 0.090-0.434 0.469-0.756 0.923-0.756 0.038 0 0.076 0.002 0.113 0.007l-0.004-0c0.372 0 0.589 0.128 0.641 0.372 0.143 0.204 0.228 0.457 0.228 0.729 0 0.034-0.001 0.068-0.004 0.101l0-0.004v0.186q-2.076 0.282-2.358 0.378zM20.5 14.427c0.004 0.053 0.007 0.114 0.007 0.176 0 0.406-0.107 0.787-0.295 1.117l0.006-0.011c-0.136 0.333-0.457 0.564-0.833 0.564-0.002 0-0.005 0-0.007-0h0q-0.801 0.026-0.801-0.82 0-1.281 1.871-1.281zM6.445 16.298c-0.252-0.298-0.42-0.674-0.467-1.086l-0.001-0.009v-1.992q0-1.589-0.468-2.056c-0.45-0.401-1.047-0.646-1.701-0.646-0.060 0-0.119 0.002-0.177 0.006l0.008-0q-2.434 0-2.806 1.871c0 0.186 0.064 0.282 0.186 0.282l1.217 0.096c0.006 0.001 0.013 0.001 0.021 0.001 0.092 0 0.167-0.075 0.167-0.167 0-0.007-0-0.014-0.001-0.021l0 0.001c0.082-0.443 0.466-0.774 0.927-0.774 0.035 0 0.069 0.002 0.103 0.005l-0.004-0c0.372 0 0.589 0.128 0.641 0.372 0.123 0.193 0.196 0.428 0.196 0.681 0 0.056-0.004 0.111-0.011 0.165l0.001-0.006v0.186q-2.056 0.282-2.338 0.372c-0.762 0.346-1.283 1.101-1.283 1.977 0 0.028 0.001 0.056 0.002 0.083l-0-0.004c-0.011 0.070-0.017 0.152-0.017 0.235 0 0.913 0.74 1.653 1.653 1.653 0.083 0 0.164-0.006 0.244-0.018l-0.009 0.001c0.799-0.008 1.523-0.326 2.057-0.84l-0.001 0.001c0.199 0.316 0.41 0.59 0.644 0.843l-0.003-0.004c0.009 0.001 0.019 0.001 0.029 0.001 0.097 0 0.186-0.037 0.253-0.098l-0 0c0.351-0.23 0.657-0.477 0.936-0.751l-0.001 0.001c0.052-0.044 0.085-0.109 0.085-0.182 0-0.070-0.030-0.133-0.079-0.176l-0-0zM4.292 14.427c0.004 0.057 0.006 0.123 0.006 0.19 0 0.391-0.070 0.766-0.199 1.113l0.007-0.022c-0.188 0.331-0.535 0.554-0.934 0.564l-0.001 0q-0.75 0-0.75-0.839 0-1.281 1.871-1.281zM38.732 10.59c-0.778 0.008-1.437 0.509-1.681 1.205l-0.004 0.013v-0.942c0-0.122-0.096-0.186-0.282-0.186h-1.121c-0.006-0.001-0.013-0.001-0.020-0.001-0.092 0-0.167 0.075-0.167 0.167 0 0.007 0 0.014 0.001 0.021l-0-0.001v6.361c0 0.064 0.064 0.154 0.186 0.282h1.217c0.010 0.002 0.022 0.002 0.034 0.002 0.138 0 0.25-0.112 0.25-0.25 0-0.012-0.001-0.024-0.003-0.036l0 0.001v-3.363c-0.004-0.055-0.006-0.118-0.006-0.183 0-0.372 0.070-0.728 0.198-1.054l-0.007 0.020c0.080-0.326 0.371-0.565 0.716-0.565 0.012 0 0.023 0 0.035 0.001l-0.002-0q0.75 0 0.75 1.781v3.37c0 0.064 0.064 0.154 0.186 0.282h1.217c0.010 0.002 0.022 0.002 0.034 0.002 0.138 0 0.25-0.112 0.25-0.25 0-0.012-0.001-0.024-0.003-0.036l0 0.001v-3.953c0.009-0.096 0.015-0.208 0.015-0.321 0-0.585-0.145-1.137-0.402-1.62l0.009 0.019c-0.241-0.464-0.717-0.775-1.267-0.775-0.048 0-0.096 0.002-0.142 0.007l0.006-0zM25.068 19.386c-2.38 0.989-5.144 1.569-8.041 1.582l-0.005 0c-0.072 0.001-0.156 0.001-0.241 0.001-3.737 0-7.238-1.009-10.246-2.77l0.096 0.052-0.282-0.096q-0.282 0.096 0 0.372c2.717 2.442 6.328 3.935 10.289 3.935 0.067 0 0.135-0 0.202-0.001l-0.010 0q5.125 0 8.514-2.524c0.106-0.092 0.175-0.223 0.186-0.37l0-0.002c0.006-0.243-0.147-0.308-0.461-0.179zM31.711 10.59c-0.029-0.001-0.062-0.002-0.096-0.002-0.799 0-1.509 0.383-1.956 0.976l-0.005 0.006c-0.47 0.645-0.753 1.452-0.753 2.326 0 0.054 0.001 0.107 0.003 0.161l-0-0.008c-0.001 0.040-0.002 0.087-0.002 0.134 0 0.895 0.281 1.724 0.761 2.404l-0.009-0.013c0.44 0.628 1.159 1.033 1.974 1.033 0.029 0 0.058-0.001 0.087-0.002l-0.004 0c0.010 0 0.022 0 0.034 0 0.804 0 1.519-0.382 1.974-0.974l0.004-0.006c0.497-0.641 0.797-1.457 0.797-2.343 0-0.048-0.001-0.095-0.003-0.143l0 0.007c0.001-0.039 0.002-0.084 0.002-0.13 0-0.896-0.281-1.726-0.76-2.408l0.009 0.013c-0.441-0.628-1.162-1.033-1.977-1.033-0.028 0-0.056 0-0.083 0.001l0.004-0zM31.711 16.298q-0.935 0-0.935-2.434 0-1.967 0.935-1.967c0.034-0.006 0.073-0.010 0.112-0.010 0.33 0 0.602 0.25 0.637 0.571l0 0.003c0.135 0.462 0.213 0.993 0.213 1.543 0 0.050-0.001 0.1-0.002 0.149l0-0.007q0 2.152-0.961 2.152zM28.066 15.734c-0.594-0.298-1.295-0.473-2.037-0.473-0.075 0-0.149 0.002-0.222 0.005l0.010-0 2.056-2.992c0.141-0.152 0.241-0.344 0.281-0.557l0.001-0.007v-0.75c0-0.186-0.064-0.282-0.186-0.282h-4.023c-0.010-0.002-0.022-0.002-0.034-0.002-0.138 0-0.25 0.112-0.25 0.25 0 0.012 0.001 0.024 0.003 0.036l-0-0.001v0.846c-0.002 0.010-0.002 0.022-0.002 0.034 0 0.138 0.112 0.25 0.25 0.25 0.012 0 0.024-0.001 0.036-0.003l-0.001 0h2.056l-2.434 3.466c-0.062 0.165-0.098 0.355-0.098 0.554 0 0.030 0.001 0.061 0.003 0.091l-0-0.004v0.839c-0.002 0.010-0.002 0.022-0.002 0.034 0 0.138 0.112 0.25 0.25 0.25 0.012 0 0.024-0.001 0.036-0.003l-0.001 0c0.62-0.353 1.362-0.561 2.152-0.561s1.533 0.208 2.174 0.573l-0.022-0.011c0.010 0.002 0.022 0.002 0.034 0.002 0.138 0 0.25-0.112 0.25-0.25 0-0.012-0.001-0.024-0.003-0.036l0 0.001v-0.922c0-0.007 0.001-0.015 0.001-0.024 0-0.17-0.116-0.313-0.274-0.354l-0.003-0.001zM25.862 17.765c-0.844 0.004-1.634 0.23-2.316 0.621l0.023-0.012q-0.378 0.378 0.096 0.372 2.338-0.282 2.716 0.096 0.186 0.282-0.641 2.62c0.025 0.075 0.095 0.129 0.177 0.129 0.039 0 0.076-0.012 0.106-0.033l-0.001 0c0.587-0.487 1.016-1.144 1.212-1.896l0.006-0.025q0.372-1.281 0.096-1.544-0.115-0.391-1.473-0.327z"></path>
</symbol>









</defs>
</svg>