<?xml version="1.0" encoding="UTF-8"?>
<svg xmlns="http://www.w3.org/2000/svg" xmlns:xlink="http://www.w3.org/1999/xlink" width="180.59pt" height="56.67pt" viewBox="0 0 180.59 56.67" version="1.2">
<defs>
<clipPath id="clip1">
  <path d="M 158 23 L 179.863281 23 L 179.863281 50 L 158 50 Z M 158 23 "/>
</clipPath>
<clipPath id="clip2">
  <path d="M 0.320312 0 L 76 0 L 76 56.34375 L 0.320312 56.34375 Z M 0.320312 0 "/>
</clipPath>
</defs>
<g id="surface1">
<path style=" stroke:none;fill-rule:nonzero;fill:rgb(36.083984%,73.631287%,96.484375%);fill-opacity:1;" d="M 95.113281 34.300781 C 95.113281 34.300781 97.761719 37.304688 100.984375 37.304688 C 102.269531 37.304688 103.558594 36.839844 103.558594 35.410156 C 103.558594 32.582031 91.964844 32.257812 91.964844 24.242188 C 91.964844 19.628906 96.007812 16.550781 101.089844 16.550781 C 104.488281 16.550781 109.25 18.195312 109.25 22.097656 L 109.25 24.886719 L 103.523438 24.886719 L 103.523438 23.777344 C 103.523438 22.847656 102.199219 22.277344 101.019531 22.277344 C 99.730469 22.277344 98.40625 22.8125 98.40625 23.992188 C 98.40625 27.105469 110 26.675781 110 35.085938 C 110 39.347656 106.671875 42.996094 100.910156 42.996094 C 94.898438 42.996094 91.570312 38.773438 91.570312 38.773438 L 95.113281 34.300781 "/>
<path style=" stroke:none;fill-rule:nonzero;fill:rgb(36.083984%,73.631287%,96.484375%);fill-opacity:1;" d="M 113.761719 22.957031 C 113.761719 22.453125 113.476562 22.167969 112.972656 22.167969 L 111.613281 22.167969 L 111.613281 16.980469 L 117.339844 16.980469 C 119.164062 16.980469 119.953125 17.765625 119.953125 19.589844 L 119.953125 25.066406 C 119.953125 25.996094 119.878906 26.640625 119.878906 26.640625 L 119.953125 26.640625 C 120.992188 24.816406 123.136719 23.707031 125.570312 23.707031 C 129.292969 23.707031 132.191406 25.425781 132.191406 30.613281 L 132.191406 36.589844 C 132.191406 37.089844 132.476562 37.378906 132.976562 37.378906 L 134.339844 37.378906 L 134.339844 42.566406 L 128.613281 42.566406 C 126.789062 42.566406 126 41.78125 126 39.953125 L 126 31.757812 C 126 30.039062 125.320312 29.324219 123.960938 29.324219 C 122.0625 29.324219 120.8125 30.433594 120.273438 32.046875 C 120.023438 32.761719 119.953125 33.546875 119.953125 34.40625 L 119.953125 42.566406 L 113.761719 42.566406 L 113.761719 22.957031 "/>
<path style=" stroke:none;fill-rule:nonzero;fill:rgb(36.083984%,73.631287%,96.484375%);fill-opacity:1;" d="M 146.257812 37.84375 C 148.511719 37.84375 150.445312 36.160156 150.445312 33.40625 C 150.445312 30.613281 148.511719 28.859375 146.257812 28.859375 C 144.003906 28.859375 142.070312 30.613281 142.070312 33.40625 C 142.070312 36.160156 144.003906 37.84375 146.257812 37.84375 Z M 146.222656 23.707031 C 152.054688 23.707031 156.671875 27.609375 156.671875 33.40625 C 156.671875 39.167969 152.054688 42.996094 146.257812 42.996094 C 140.460938 42.996094 135.84375 39.167969 135.84375 33.40625 C 135.84375 27.609375 140.460938 23.707031 146.222656 23.707031 "/>
<g clip-path="url(#clip1)" clip-rule="nonzero">
<path style=" stroke:none;fill-rule:nonzero;fill:rgb(36.083984%,73.631287%,96.484375%);fill-opacity:1;" d="M 170.023438 37.878906 C 171.957031 37.878906 173.640625 36.304688 173.640625 33.476562 C 173.640625 30.722656 172.171875 28.933594 170.023438 28.933594 C 168.164062 28.933594 166.410156 30.292969 166.410156 33.476562 C 166.410156 35.695312 167.589844 37.878906 170.023438 37.878906 Z M 160.398438 30.113281 C 160.398438 29.613281 160.109375 29.324219 159.609375 29.324219 L 158.25 29.324219 L 158.25 24.136719 L 163.582031 24.136719 C 165.371094 24.136719 165.980469 24.960938 165.980469 25.746094 C 165.980469 25.960938 165.980469 26.070312 165.980469 26.070312 L 166.050781 26.070312 C 166.050781 26.070312 167.660156 23.707031 171.5625 23.707031 C 176.574219 23.707031 179.867188 27.644531 179.867188 33.371094 C 179.867188 39.203125 176.179688 42.996094 171.277344 42.996094 C 168.269531 42.996094 166.589844 41.421875 166.589844 41.421875 L 166.515625 41.421875 C 166.515625 41.421875 166.589844 42.066406 166.589844 42.996094 L 166.589844 49.722656 L 160.398438 49.722656 L 160.398438 30.113281 "/>
</g>
<g clip-path="url(#clip2)" clip-rule="nonzero">
<path style=" stroke:none;fill-rule:nonzero;fill:rgb(12.939453%,17.651367%,20.776367%);fill-opacity:1;" d="M 68.246094 -0.00390625 L 8.050781 -0.00390625 C 3.78125 -0.00390625 0.320312 3.457031 0.320312 7.726562 L 0.320312 48.609375 C 0.320312 52.878906 3.78125 56.34375 8.050781 56.34375 L 68.246094 56.34375 C 72.515625 56.34375 75.976562 52.878906 75.976562 48.609375 L 75.976562 7.726562 C 75.976562 3.457031 72.515625 -0.00390625 68.246094 -0.00390625 "/>
</g>
<path style=" stroke:none;fill-rule:nonzero;fill:rgb(100%,100%,100%);fill-opacity:1;" d="M 29.636719 40.871094 C 29.636719 44.65625 28.839844 47.050781 27.269531 47.988281 C 26.199219 48.628906 23.597656 48.957031 19.539062 48.957031 C 16.214844 48.957031 14.042969 48.441406 13.074219 47.425781 C 12.109375 46.40625 11.617188 44.203125 11.617188 40.871094 L 11.617188 32.117188 L 19.371094 32.117188 L 19.371094 40.316406 C 19.371094 42.078125 20.070312 42.445312 20.65625 42.445312 C 21.128906 42.445312 21.71875 42.195312 21.839844 40.980469 L 21.839844 9.234375 L 29.636719 9.234375 L 29.636719 40.871094 "/>
<path style=" stroke:none;fill-rule:nonzero;fill:rgb(100%,100%,100%);fill-opacity:1;" d="M 47.339844 15.519531 L 43.4375 15.519531 L 43.4375 48.792969 L 35.632812 48.792969 L 35.632812 15.519531 L 31.734375 15.519531 L 31.734375 9.234375 L 47.339844 9.234375 L 47.339844 15.519531 "/>
<path style=" stroke:none;fill-rule:nonzero;fill:rgb(100%,100%,100%);fill-opacity:1;" d="M 62.460938 48.792969 L 49.976562 48.792969 L 49.976562 9.234375 L 57.714844 9.234375 L 57.714844 42.277344 L 62.460938 42.277344 L 62.460938 48.792969 "/>
</g>
</svg>
