<svg xmlns="http://www.w3.org/2000/svg" xmlns:xlink="http://www.w3.org/1999/xlink" viewBox="0 0 50 25"><defs><linearGradient id="a" x1="-.8" x2="50.8" y1="17" y2="8" data-name="Unbenannter Verlauf 14" gradientUnits="userSpaceOnUse"><stop offset="0" stop-color="#5362ed"/><stop offset="1" stop-color="#6086e8"/></linearGradient><linearGradient xlink:href="#a" id="b" x1="10" x2="40" y1="12.5" y2="12.5" data-name="Unbenannter Verlauf 14"/><linearGradient xlink:href="#a" id="c" x1="15" x2="35" y1="9.5" y2="9.5" data-name="Unbenannter Verlauf 14"/><linearGradient xlink:href="#a" id="d" x1="15" x2="35" y1="16" y2="16" data-name="Unbenannter Verlauf 14"/><linearGradient xlink:href="#a" id="e" x1="15" x2="33" y1="19" y2="19" data-name="Unbenannter Verlauf 14"/></defs><g style="opacity:.4"><path d="M46 0H4C1.8 0 0 1.8 0 4v17.1c0 2.2 1.8 4 4 4h42.1c2.2 0 4-1.8 4-4V4c0-2.2-1.8-4-4-4Zm1 21c0 .5-.4 1-1 1H4c-.5 0-1-.4-1-1V4c0-.5.4-1 1-1h42.1c.5 0 1 .4 1 1v17.1Z" style="fill:url(#a)"/></g><path d="M36 0H14c-2.2 0-4 1.8-4 4v17.1c0 2.2 1.8 4 4 4h22.1c2.2 0 4-1.8 4-4V4c0-2.2-1.8-4-4-4Zm1 21c0 .5-.4 1-1 1H14c-.5 0-1-.4-1-1V4c0-.5.4-1 1-1h22.1c.5 0 1 .4 1 1v17.1Z" style="fill:url(#b)"/><rect width="20" height="8" x="15" y="5.5" rx="2" ry="2" style="fill:url(#c)"/><rect width="20" height="2" x="15" y="15" rx="1" ry="1" style="fill:url(#d)"/><rect width="18" height="2" x="15" y="18" rx="1" ry="1" style="fill:url(#e)"/></svg>